<svg width="428" height="233" viewBox="0 0 428 233" fill="none" xmlns="http://www.w3.org/2000/svg"><path d="M427.345 110.04c.124 1.326.208 2.658.25 3.996l-1 .031a62.054 62.054 0 010 3.958l1 .031a64.715 64.715 0 01-.25 3.996l-.996-.093a63.567 63.567 0 01-.491 3.917l.988.155a65.372 65.372 0 01-.742 3.936l-.977-.215a65.256 65.256 0 01-.965 3.832l.962.273a69.673 69.673 0 01-1.204 3.818l-.945-.328a70.111 70.111 0 01-1.399 3.693l.925.38a75.886 75.886 0 01-1.627 3.676l-.904-.429a77.43 77.43 0 01-1.782 3.519l.88.474a83.17 83.17 0 01-1.985 3.482l-.857-.516a86.368 86.368 0 01-2.128 3.355l.832.555a92.421 92.421 0 01-2.287 3.274l-.807-.59a97.226 97.226 0 01-2.412 3.162l.782.623a104.67 104.67 0 01-2.552 3.084l-.758-.652c-.856.994-1.737 1.981-2.643 2.96l.734.679c-.904.977-1.832 1.945-2.785 2.905l-.71-.704c-.921.929-1.865 1.85-2.832 2.764l.686.727a130.23 130.23 0 01-2.97 2.72l-.664-.747c-.98.869-1.98 1.731-3.001 2.586l.642.766a143.038 143.038 0 01-3.118 2.537l-.62-.784a152.752 152.752 0 01-3.149 2.423l.599.801a159.959 159.959 0 01-3.242 2.364l-.579-.815a166.907 166.907 0 01-3.275 2.267l.559.829a174.6 174.6 0 01-3.348 2.204l-.54-.841a181.782 181.782 0 01-3.38 2.117l.522.853a189.452 189.452 0 01-3.441 2.054l-.504-.864a187.791 187.791 0 01-3.467 1.974l.486.874c-1.16.646-2.335 1.284-3.523 1.914l-.468-.883c-1.167.62-2.347 1.232-3.54 1.837l.452.892a227.068 227.068 0 01-3.596 1.782l-.436-.9a222.089 222.089 0 01-3.601 1.706l.421.908c-1.21.56-2.431 1.113-3.663 1.658l-.405-.914a244.402 244.402 0 01-3.651 1.581l.39.921a258.247 258.247 0 01-3.724 1.541l-.375-.927c-1.221.494-2.452.981-3.694 1.461l.361.933a286.36 286.36 0 01-3.767 1.424l-.347-.938a264.19 264.19 0 01-3.741 1.351l.333.943c-1.256.444-2.522.88-3.797 1.31l-.319-.948c-1.256.423-2.52.839-3.792 1.248l.306.952c-1.266.407-2.539.807-3.821 1.2l-.294-.956c-1.272.39-2.552.772-3.84 1.148l.28.96c-1.272.372-2.553.736-3.84 1.094l-.268-.963c-1.284.356-2.575.706-3.874 1.049l.255.967c-1.282.338-2.571.67-3.868.994l-.243-.97a315.22 315.22 0 01-3.886.948l.231.973c-1.297.308-2.6.609-3.91.903l-.219-.975c-1.293.29-2.591.573-3.896.85l.207.978a312.34 312.34 0 01-3.945.812l-.196-.98c-1.296.259-2.598.511-3.907.756l.185.983c-1.311.246-2.627.485-3.949.718l-.173-.985c-1.309.23-2.624.454-3.945.67l.162.987c-1.311.215-2.628.424-3.95.626l-.151-.989c-1.319.202-2.642.396-3.971.584l.14.99c-1.315.186-2.635.365-3.959.538l-.129-.992a352.46 352.46 0 01-3.969.495l.119.993c-1.327.158-2.657.31-3.993.454l-.107-.994a359.16 359.16 0 01-3.965.408l.097.996c-1.33.13-2.663.253-4.001.369l-.087-.996c-1.323.115-2.65.223-3.981.325l.076.997c-1.327.102-2.659.197-3.994.285l-.066-.998c-1.332.088-2.668.169-4.007.244l.056.998c-1.326.074-2.656.141-3.989.202l-.046-.999c-1.329.06-2.661.114-3.997.161l.035 1c-1.335.047-2.673.087-4.015.121l-.025-1a404.1 404.1 0 01-3.987.08l.015 1c-1.335.02-2.674.034-4.015.04l-.005-1a336.135 336.135 0 01-4.018 0l-.005 1c-1.342-.006-2.68-.02-4.016-.04l.016-1a404.1 404.1 0 01-3.987-.08l-.025 1a407.5 407.5 0 01-4.016-.121l.036-1a402.126 402.126 0 01-3.998-.161l-.045.999a398.704 398.704 0 01-3.989-.202l.056-.998c-1.34-.075-2.675-.156-4.007-.244l-.066.998a367.723 367.723 0 01-3.994-.285l.076-.997c-1.331-.102-2.658-.21-3.981-.325l-.087.996a364.413 364.413 0 01-4.001-.369l.097-.996a356.683 356.683 0 01-3.965-.408l-.108.994a360.464 360.464 0 01-3.992-.454l.118-.993c-1.327-.158-2.65-.323-3.968-.495l-.129.992a370.475 370.475 0 01-3.959-.538l.139-.99a350.663 350.663 0 01-3.97-.584l-.151.989a370.303 370.303 0 01-3.951-.626l.162-.987c-1.32-.216-2.635-.44-3.944-.67l-.173.985a359.516 359.516 0 01-3.949-.718l.184-.983c-1.308-.245-2.61-.497-3.907-.756l-.196.98a316.02 316.02 0 01-3.945-.812l.208-.978c-1.305-.277-2.604-.56-3.896-.85l-.219.975c-1.31-.294-2.614-.595-3.91-.903l.231-.973a315.385 315.385 0 01-3.887-.948l-.243.97a311.93 311.93 0 01-3.868-.994l.255-.967a325.87 325.87 0 01-3.873-1.049l-.268.963a302.545 302.545 0 01-3.841-1.094l.281-.96a309.234 309.234 0 01-3.841-1.148l-.293.956a289.788 289.788 0 01-3.821-1.2l.306-.952a280.696 280.696 0 01-3.792-1.248l-.32.948a284.34 284.34 0 01-3.797-1.31l.333-.943a270.152 270.152 0 01-3.74-1.351l-.347.938a283.237 283.237 0 01-3.768-1.424l.361-.933a257.16 257.16 0 01-3.693-1.461l-.375.927a256.788 256.788 0 01-3.724-1.541l.39-.921a244.879 244.879 0 01-3.651-1.581l-.405.914a232.336 232.336 0 01-3.663-1.658l.42-.908a222.442 222.442 0 01-3.6-1.706l-.436.9a226.678 226.678 0 01-3.597-1.782l.453-.892a216.837 216.837 0 01-3.54-1.837l-.469.883a198.137 198.137 0 01-3.523-1.914l.486-.874c-1.17-.65-2.325-1.308-3.466-1.974l-.504.864a190.161 190.161 0 01-3.441-2.054l.521-.853a180.721 180.721 0 01-3.379-2.117l-.54.841a175.922 175.922 0 01-3.349-2.204l.56-.829c-1.11-.748-2.2-1.504-3.275-2.267l-.58.815a157.22 157.22 0 01-3.241-2.364l.6-.801c-1.07-.8-2.12-1.608-3.15-2.423l-.62.784a143.52 143.52 0 01-3.119-2.537l.642-.766c-1.02-.855-2.02-1.717-3-2.586l-.664.747a129.65 129.65 0 01-2.97-2.72l.686-.727a122.417 122.417 0 01-2.833-2.764l-.71.704c-.952-.96-1.88-1.929-2.784-2.905l.733-.679a109.43 109.43 0 01-2.642-2.96l-.758.652a103.61 103.61 0 01-2.553-3.084l.783-.623a96.242 96.242 0 01-2.412-3.162l-.808.59a92.672 92.672 0 01-2.286-3.274l.832-.555a86.538 86.538 0 01-2.129-3.355l-.856.516a83.564 83.564 0 01-1.986-3.482l.88-.474a78.093 78.093 0 01-1.782-3.519l-.903.429a75.28 75.28 0 01-1.627-3.676l.925-.38a70.931 70.931 0 01-1.4-3.694l-.945.329a69.395 69.395 0 01-1.203-3.818l.962-.273a66.136 66.136 0 01-.966-3.832l-.976.215a65.743 65.743 0 01-.742-3.936l.987-.155a63.691 63.691 0 01-.49-3.917l-.996.093a64.173 64.173 0 01-.25-3.996l1-.031a63.256 63.256 0 010-3.958l-1-.031c.042-1.338.125-2.67.25-3.996l.995.093c.124-1.311.287-2.617.491-3.917l-.987-.155c.207-1.318.454-2.63.742-3.936l.976.215c.283-1.284.605-2.561.966-3.832l-.962-.273a68.52 68.52 0 011.204-3.817l.944.328c.43-1.239.897-2.47 1.4-3.694l-.925-.38a75.195 75.195 0 011.627-3.676l.903.43a77.895 77.895 0 011.783-3.52l-.88-.474a83.065 83.065 0 011.985-3.482l.856.516a86.792 86.792 0 012.129-3.355l-.832-.555c.732-1.1 1.495-2.19 2.286-3.274l.808.59a97.39 97.39 0 012.412-3.162l-.783-.623a103.936 103.936 0 012.553-3.084l.758.652c.855-.994 1.736-1.98 2.642-2.96l-.733-.68a116.16 116.16 0 012.784-2.904l.71.704a123.86 123.86 0 012.833-2.764l-.687-.727c.968-.915 1.959-1.822 2.971-2.72l.664.748c.98-.87 1.98-1.732 3-2.587L34.738 53c1.02-.854 2.06-1.7 3.118-2.537l.62.784a152.827 152.827 0 013.15-2.423l-.6-.8a159.505 159.505 0 013.243-2.365l.579.815a165.982 165.982 0 013.275-2.267l-.56-.83c1.1-.741 2.216-1.476 3.349-2.203l.54.841c1.11-.713 2.237-1.419 3.38-2.117l-.522-.853a192.854 192.854 0 013.44-2.054l.505.864a197.376 197.376 0 013.466-1.974l-.486-.874c1.16-.645 2.335-1.284 3.523-1.914l.47.883a212.21 212.21 0 013.539-1.837l-.453-.892a222.066 222.066 0 013.597-1.782l.436.9a227.615 227.615 0 013.6-1.706l-.42-.908c1.21-.56 2.43-1.113 3.663-1.658l.405.914a242.808 242.808 0 013.65-1.58l-.389-.922c1.23-.52 2.472-1.034 3.724-1.54l.375.926c1.22-.494 2.452-.98 3.693-1.46l-.36-.933c1.245-.482 2.501-.957 3.767-1.425l.346.938c1.238-.457 2.485-.908 3.741-1.351l-.332-.943c1.256-.444 2.522-.88 3.796-1.31l.32.948c1.255-.423 2.519-.839 3.792-1.248l-.306-.952c1.265-.407 2.539-.807 3.821-1.2l.293.956c1.272-.39 2.552-.772 3.841-1.148l-.281-.96c1.273-.372 2.553-.736 3.841-1.094l.268.963a325.87 325.87 0 013.873-1.049l-.255-.966c1.282-.339 2.572-.67 3.868-.995l.243.97a322.8 322.8 0 013.887-.948l-.231-.973c1.296-.308 2.6-.61 3.91-.903l.219.975c1.292-.29 2.591-.573 3.896-.85l-.208-.978a316.02 316.02 0 013.945-.812l.196.98a355.4 355.4 0 013.907-.756l-.184-.983c1.31-.246 2.627-.485 3.949-.718l.173.985a352.77 352.77 0 013.944-.67l-.162-.987c1.312-.215 2.629-.424 3.951-.626l.151.989c1.318-.202 2.642-.396 3.97-.584l-.139-.99c1.314-.186 2.634-.365 3.959-.538l.129.992c1.318-.172 2.641-.337 3.968-.495l-.118-.993c1.326-.158 2.657-.31 3.992-.454l.108.994c1.317-.143 2.639-.279 3.965-.408l-.097-.996c1.329-.13 2.663-.253 4.001-.37l.087.997c1.323-.115 2.65-.223 3.981-.325l-.076-.997c1.327-.102 2.659-.197 3.994-.285l.066.998a371.49 371.49 0 014.007-.244l-.056-.998c1.326-.074 2.656-.141 3.989-.202l.045.999c1.329-.06 2.662-.114 3.998-.161l-.036-1a379.66 379.66 0 014.016-.12l.025.999a404.1 404.1 0 013.987-.08l-.016-1c1.336-.02 2.674-.034 4.016-.04l.005 1a399.812 399.812 0 014.018 0l.005-1c1.341.006 2.68.02 4.015.04l-.015 1a404.1 404.1 0 013.987.08l.025-1c1.342.034 2.68.074 4.015.121l-.035 1c1.336.047 2.668.1 3.997.161l.046-.999c1.333.06 2.663.128 3.989.202l-.056.998c1.339.075 2.675.156 4.007.244l.066-.998c1.335.088 2.667.183 3.994.285l-.076.997c1.331.102 2.658.21 3.981.325l.087-.996c1.338.116 2.671.24 4.001.37l-.097.995c1.326.129 2.647.265 3.965.408l.108-.994c1.335.144 2.665.296 3.992.454l-.119.993a367.4 367.4 0 013.969.495l.129-.992c1.324.173 2.644.352 3.959.538l-.14.99c1.329.188 2.652.382 3.971.584l.151-.989c1.322.202 2.639.41 3.95.626l-.162.987c1.321.216 2.636.44 3.945.67l.173-.985c1.322.233 2.638.472 3.949.718l-.185.983c1.309.245 2.611.497 3.908.756l.195-.98c1.322.263 2.637.534 3.945.812l-.207.978c1.305.277 2.603.56 3.896.85l.219-.975c1.31.294 2.613.595 3.91.903l-.231.973c1.302.309 2.598.625 3.886.948l.243-.97c1.297.324 2.586.656 3.869.995l-.256.966c1.299.343 2.59.693 3.874 1.05l.268-.964c1.287.358 2.568.722 3.84 1.094l-.28.96c1.288.376 2.568.758 3.841 1.148l.293-.956c1.282.393 2.555.793 3.821 1.2l-.306.952c1.272.409 2.537.825 3.792 1.248l.319-.947c1.275.429 2.541.866 3.797 1.31l-.333.942c1.257.444 2.504.894 3.741 1.351l.347-.938c1.265.468 2.521.943 3.767 1.425l-.361.932c1.242.48 2.473.967 3.694 1.461l.375-.927c1.252.507 2.493 1.02 3.724 1.541l-.39.921a242.34 242.34 0 013.651 1.581l.405-.914c1.232.545 2.453 1.098 3.663 1.658l-.421.908c1.212.561 2.413 1.13 3.601 1.706l.436-.9c1.211.587 2.41 1.18 3.596 1.782l-.452.892a217.28 217.28 0 013.54 1.837l.468-.883c1.188.63 2.363 1.269 3.523 1.914l-.486.874c1.17.65 2.326 1.308 3.467 1.974l.504-.864c1.162.677 2.309 1.362 3.441 2.054l-.522.853a182.85 182.85 0 013.38 2.117l.54-.841c1.132.727 2.249 1.462 3.349 2.204l-.56.829c1.109.748 2.2 1.504 3.275 2.267l.579-.815c1.098.78 2.179 1.568 3.242 2.364l-.599.8c1.068.801 2.118 1.609 3.149 2.424l.62-.784A140.68 140.68 0 01393.353 53l-.642.766a137.21 137.21 0 013.001 2.587l.664-.748a130.71 130.71 0 012.97 2.72l-.686.727c.967.914 1.911 1.835 2.832 2.764l.71-.704c.953.96 1.881 1.929 2.785 2.905l-.734.68a107.97 107.97 0 012.643 2.96l.758-.653a104.95 104.95 0 012.552 3.084l-.782.623a98.107 98.107 0 012.412 3.162l.807-.59a92.51 92.51 0 012.287 3.274l-.832.555a86.02 86.02 0 012.128 3.355l.857-.516a83.42 83.42 0 011.985 3.482l-.88.474a77.278 77.278 0 011.782 3.52l.904-.43a75.833 75.833 0 011.627 3.676l-.925.38a69.81 69.81 0 011.399 3.694l.945-.328a68.52 68.52 0 011.204 3.817l-.962.273c.361 1.27.683 2.548.965 3.832l.977-.215c.288 1.306.535 2.618.742 3.936l-.988.155c.204 1.3.368 2.606.491 3.917l.996-.093z" stroke="#fff" stroke-width="2" stroke-dasharray="4 4"/></svg>