<svg width="680" height="640" viewBox="0 0 680 640" fill="none" xmlns="http://www.w3.org/2000/svg"><path d="M658.026 465.141c.104 1.335.178 2.673.222 4.016l-.999.033a88.256 88.256 0 01.041 3.99l1 .012a89.547 89.547 0 01-.138 4.019l-.998-.057a88.493 88.493 0 01-.314 3.96l.995.101a90.528 90.528 0 01-.497 3.99l-.989-.145a91.545 91.545 0 01-.664 3.919l.982.188a93.482 93.482 0 01-.844 3.93l-.973-.231a93.49 93.49 0 01-1.002 3.851l.963.272a97.355 97.355 0 01-1.173 3.841l-.95-.312a100.022 100.022 0 01-1.319 3.763l.936.35c-.465 1.247-.958 2.49-1.476 3.728l-.922-.386a107.924 107.924 0 01-1.614 3.658l.907.421a110.2 110.2 0 01-1.751 3.598l-.891-.454a112.478 112.478 0 01-1.881 3.536l.875.485a117.64 117.64 0 01-2 3.464l-.857-.514a123.66 123.66 0 01-2.115 3.397l.84.542a127.949 127.949 0 01-2.226 3.334l-.823-.568a131.044 131.044 0 01-2.32 3.251l.806.593a140.2 140.2 0 01-2.433 3.206l-.788-.616a144.273 144.273 0 01-2.497 3.103l.771.637a154.517 154.517 0 01-2.621 3.082l-.753-.658c-.865.99-1.748 1.975-2.649 2.954l.736.677a165.08 165.08 0 01-2.772 2.94l-.72-.695c-.917.949-1.85 1.893-2.801 2.831l.703.711c-.948.937-1.913 1.867-2.894 2.792l-.686-.727c-.968.913-1.952 1.821-2.951 2.723l.67.742c-.984.888-1.982 1.771-2.996 2.648l-.654-.756a209.65 209.65 0 01-3.069 2.601l.638.769a199.242 199.242 0 01-3.106 2.529l-.623-.782a210.771 210.771 0 01-3.15 2.465l.609.793a218.158 218.158 0 01-3.233 2.435l-.594-.804a231.16 231.16 0 01-3.217 2.333l.58.814a232.304 232.304 0 01-3.305 2.312l-.566-.824a246.69 246.69 0 01-3.323 2.242l.553.833a251.77 251.77 0 01-3.355 2.185l-.539-.842a247.344 247.344 0 01-3.41 2.145l.526.851a268.123 268.123 0 01-3.425 2.082l-.513-.858a276.537 276.537 0 01-3.446 2.027l.5.865a274.08 274.08 0 01-3.52 2.002l-.488-.872a295.14 295.14 0 01-3.49 1.92l.476.88a310.198 310.198 0 01-3.546 1.889l-.464-.886a309.09 309.09 0 01-3.59 1.852l.452.891c-1.181.6-2.372 1.194-3.571 1.784l-.441-.898a317.81 317.81 0 01-3.607 1.746l.43.903a336.556 336.556 0 01-3.67 1.719l-.419-.908a309.632 309.632 0 01-3.623 1.645l.408.913a345.274 345.274 0 01-3.679 1.619l-.397-.918a331.787 331.787 0 01-3.716 1.583l.387.923a346.66 346.66 0 01-3.693 1.524l-.376-.926c-1.233.501-2.473.997-3.72 1.488l.367.93c-1.251.492-2.508.98-3.773 1.462l-.356-.935c-1.239.473-2.486.94-3.738 1.403l.346.938a387.97 387.97 0 01-3.772 1.371l-.336-.942a393.87 393.87 0 01-3.802 1.337l.327.945a403.04 403.04 0 01-3.801 1.294l-.317-.948c-1.26.422-2.526.839-3.798 1.251l.309.951c-1.275.413-2.556.821-3.843 1.224l-.299-.954c-1.275.4-2.556.794-3.842 1.183l.29.958c-1.273.385-2.552.766-3.836 1.141l-.281-.959a460.02 460.02 0 01-3.86 1.109l.272.963c-1.294.365-2.594.726-3.899 1.082l-.263-.965c-1.278.349-2.562.692-3.851 1.031l.255.967c-1.292.34-2.588.675-3.89 1.005l-.246-.97c-1.299.33-2.602.654-3.911.973l.237.972c-1.296.316-2.598.628-3.904.935l-.228-.974c-1.295.304-2.595.604-3.899.898l.221.976c-1.307.295-2.619.585-3.935.871l-.212-.978c-1.308.284-2.622.563-3.94.838l.204.979c-1.302.271-2.609.537-3.92.798l-.196-.98c-1.308.26-2.62.517-3.937.768l.188.982c-1.32.252-2.643.499-3.971.741l-.179-.984c-1.31.239-2.624.473-3.943.703l.172.985c-1.314.229-2.632.453-3.954.672l-.163-.987c-1.319.219-2.642.433-3.969.642l.156.988c-1.327.209-2.658.413-3.992.612l-.148-.989c-1.313.197-2.631.388-3.951.575l.14.99c-1.323.188-2.65.37-3.981.548l-.132-.992c-1.328.178-2.659.35-3.993.518l.125.992a506.09 506.09 0 01-3.992.486l-.117-.993c-1.322.156-2.647.307-3.975.454l.11.994c-1.331.146-2.665.288-4.001.425l-.102-.995c-1.334.137-2.672.269-4.012.396l.094.996c-1.327.126-2.658.247-3.991.363l-.087-.996c-1.328.116-2.659.227-3.992.334l.08.997c-1.336.106-2.675.208-4.016.305l-.073-.997c-1.337.097-2.677.189-4.02.276l.065.998c-1.329.086-2.661.168-3.996.245l-.057-.999a522.64 522.64 0 01-4.004.216l.05.999c-1.339.067-2.681.13-4.026.188l-.043-.999c-1.336.057-2.676.11-4.017.157l.035 1c-1.332.047-2.667.09-4.004.128l-.029-.999c-1.335.038-2.672.071-4.011.099l.021 1c-1.342.029-2.686.052-4.032.071l-.014-.999a674.181 674.181 0 01-4.034.042l.007 1c-1.347.009-2.691.013-4.033.013v-1a595.114 595.114 0 01-4.012-.016l-.008 1c-1.337-.01-2.673-.025-4.006-.045l.014-.999a592.48 592.48 0 01-4.019-.074l-.022.999a535.058 535.058 0 01-4.03-.103l.03-1a525.949 525.949 0 01-4.008-.132l-.037 1a583.595 583.595 0 01-4-.161l.044-1a586.588 586.588 0 01-4.025-.191l-.051.998a580.286 580.286 0 01-4.021-.221l.058-.999a473.744 473.744 0 01-3.998-.25l-.066.998a518.568 518.568 0 01-3.998-.28l.074-.997a519.37 519.37 0 01-4.02-.312l-.081.997a519.44 519.44 0 01-4.009-.342l.089-.996a555.084 555.084 0 01-3.983-.37l-.096.995a511.161 511.161 0 01-4.002-.402l.104-.995a510.38 510.38 0 01-4.003-.434l-.112.994c-1.333-.15-2.664-.305-3.99-.464l.119-.993a498.529 498.529 0 01-3.963-.492l-.127.992a552.609 552.609 0 01-4.004-.529l.135-.991c-1.33-.181-2.657-.368-3.981-.559l-.143.99a484.218 484.218 0 01-3.966-.589l.15-.988a535.802 535.802 0 01-3.956-.62l-.159.987a486.857 486.857 0 01-3.985-.657l.167-.986a523.953 523.953 0 01-3.952-.686l-.175.984a458.79 458.79 0 01-3.936-.716l.183-.983a477.763 477.763 0 01-3.957-.755l-.191.982a467.962 467.962 0 01-3.952-.789l.2-.98c-1.31-.267-2.616-.539-3.916-.816l-.209.978a424.117 424.117 0 01-3.922-.853l.217-.976a444.474 444.474 0 01-3.931-.891l-.226.974c-1.308-.302-2.611-.61-3.909-.922l.234-.973a438.065 438.065 0 01-3.872-.95l-.243.97a448.816 448.816 0 01-3.921-1l.252-.968a439.655 439.655 0 01-3.882-1.029l-.261.965a394.633 394.633 0 01-3.858-1.061l.269-.963c-1.294-.362-2.583-.73-3.865-1.102l-.279.96a388.727 388.727 0 01-3.868-1.144l.288-.957a416.87 416.87 0 01-3.823-1.172l-.297.955a372.731 372.731 0 01-3.827-1.214l.307-.952a399.367 399.367 0 01-3.829-1.257l-.317.948a367.614 367.614 0 01-3.799-1.291l.327-.945a377.54 377.54 0 01-3.767-1.324l-.337.942a384.675 384.675 0 01-3.802-1.383l.347-.938a356.888 356.888 0 01-3.75-1.41l-.357.935c-1.249-.478-2.49-.96-3.724-1.447l.367-.93a356.568 356.568 0 01-3.747-1.506l-.379.926a359.283 359.283 0 01-3.712-1.541l.389-.922a321.502 321.502 0 01-3.657-1.568l-.399.916a315.532 315.532 0 01-3.705-1.642l.411-.912a322.655 322.655 0 01-3.643-1.669l-.423.906a325.454 325.454 0 01-3.607-1.708l.434-.901a313.745 313.745 0 01-3.628-1.776l-.446.895a315.63 315.63 0 01-3.585-1.815l.458-.889a284.995 284.995 0 01-3.529-1.847l-.47.883a284.9 284.9 0 01-3.562-1.928l.483-.876a280.607 280.607 0 01-3.488-1.954l-.495.869a260.662 260.662 0 01-3.468-2.011l.508-.861a271.74 271.74 0 01-3.453-2.073l-.522.853a245.048 245.048 0 01-3.4-2.115l.535-.845a231.96 231.96 0 01-3.369-2.172l-.549.836a227.068 227.068 0 01-3.352-2.242l.563-.826a234.285 234.285 0 01-3.265-2.265l-.577.816a214.03 214.03 0 01-3.284-2.367l.592-.806a206.644 206.644 0 01-3.2-2.398l-.607.795a200.378 200.378 0 01-3.158-2.463l.622-.783a200.063 200.063 0 01-3.123-2.536l-.638.769a186.67 186.67 0 01-3.051-2.584l.655-.756a182.08 182.08 0 01-3.008-2.661l-.671.742c-1-.904-1.983-1.815-2.95-2.731l.687-.726a169 169 0 01-2.86-2.771l-.704.709a162.755 162.755 0 01-2.834-2.881l.722-.692a160.56 160.56 0 01-2.71-2.898l-.74.673a148.137 148.137 0 01-2.684-3.026l.757-.653a144.931 144.931 0 01-2.561-3.05l-.775.632a140.805 140.805 0 01-2.5-3.154l.793-.61a131.203 131.203 0 01-2.387-3.202l-.81.585a127.663 127.663 0 01-2.296-3.286l.829-.56a120.65 120.65 0 01-2.186-3.352l-.846.533a118.864 118.864 0 01-2.072-3.422l.864-.503a113.127 113.127 0 01-1.954-3.496l-.881.473a110.25 110.25 0 01-1.826-3.562l.898-.44a104.932 104.932 0 01-1.69-3.623l-.915.405a102.082 102.082 0 01-1.553-3.696l.929-.369a98.895 98.895 0 01-1.398-3.735l-.943.332a96.852 96.852 0 01-1.253-3.815l.956-.292a93.756 93.756 0 01-1.081-3.83l-.968.251a92.688 92.688 0 01-.926-3.911l.978-.209a90.251 90.251 0 01-.746-3.904l-.987.166a90.397 90.397 0 01-.58-3.979l.993-.122a88.98 88.98 0 01-.397-3.952l-.997.078a89.878 89.878 0 01-.222-4.016l1-.033a88.845 88.845 0 01-.042-3.99l-1-.012c.016-1.343.062-2.683.138-4.019l.998.057c.076-1.324.18-2.643.315-3.959l-.995-.102c.136-1.334.301-2.664.496-3.99l.99.145a90.57 90.57 0 01.664-3.918l-.982-.189c.252-1.314.534-2.624.843-3.93l.973.231a93.49 93.49 0 011.002-3.851l-.962-.272a97.346 97.346 0 011.172-3.841l.95.312a99.147 99.147 0 011.32-3.763l-.937-.35c.466-1.247.958-2.49 1.476-3.728l.922.386a105.098 105.098 0 011.615-3.657l-.907-.421a109.26 109.26 0 011.75-3.599l.892.454c.602-1.184 1.23-2.363 1.88-3.536l-.874-.485c.643-1.16 1.31-2.315 2-3.464l.857.514c.682-1.137 1.387-2.27 2.114-3.397l-.84-.542a125.5 125.5 0 012.227-3.334l.823.568a131.543 131.543 0 012.319-3.251l-.805-.593c.79-1.074 1.601-2.142 2.433-3.205l.787.616a142.72 142.72 0 012.497-3.103l-.77-.638a151.58 151.58 0 012.62-3.082l.754.658c.865-.99 1.748-1.974 2.649-2.954l-.736-.677a163.81 163.81 0 012.772-2.94l.719.695c.917-.949 1.85-1.893 2.801-2.831l-.703-.711c.949-.936 1.913-1.867 2.894-2.792l.686.727a189.43 189.43 0 012.951-2.723l-.67-.742c.984-.888 1.983-1.771 2.996-2.648l.655.757c1.008-.873 2.031-1.74 3.069-2.602l-.639-.769a210.262 210.262 0 013.106-2.529l.624.782a217.436 217.436 0 013.149-2.465l-.609-.793a223.531 223.531 0 013.233-2.435l.595.804c1.059-.783 2.132-1.56 3.216-2.333l-.58-.814a232.304 232.304 0 013.305-2.312l.566.825a253.25 253.25 0 013.323-2.243l-.552-.833a245.458 245.458 0 013.355-2.185l.539.842c1.125-.72 2.261-1.435 3.409-2.145l-.526-.851a275.282 275.282 0 013.425-2.082l.513.858a264.799 264.799 0 013.447-2.026l-.501-.866c1.163-.673 2.337-1.34 3.52-2.002l.489.872a294.986 294.986 0 013.489-1.92l-.476-.879a311.263 311.263 0 013.546-1.89l.464.886c1.188-.622 2.385-1.24 3.591-1.852l-.453-.891c1.182-.6 2.372-1.194 3.571-1.784l.441.898a326.248 326.248 0 013.607-1.746l-.43-.902a326.908 326.908 0 013.67-1.72l.419.908a335.71 335.71 0 013.623-1.645l-.408-.913a354.427 354.427 0 013.679-1.619l.398.918c1.23-.533 2.469-1.061 3.715-1.583l-.387-.922a343.073 343.073 0 013.693-1.525l.376.926c1.233-.501 2.473-.996 3.72-1.487l-.366-.931a405.55 405.55 0 013.772-1.462l.357.935a372.06 372.06 0 013.738-1.403l-.347-.938c1.251-.462 2.508-.919 3.772-1.37l.337.941c1.26-.451 2.528-.896 3.801-1.337l-.327-.945a403.04 403.04 0 013.801-1.294l.318.948a392.71 392.71 0 013.797-1.251l-.308-.951c1.275-.413 2.556-.821 3.843-1.224l.299.954c1.274-.399 2.555-.794 3.842-1.183l-.29-.957c1.273-.386 2.551-.766 3.835-1.142l.281.96c1.281-.375 2.568-.745 3.86-1.11l-.272-.963c1.294-.365 2.594-.726 3.899-1.082l.263.965c1.279-.349 2.562-.692 3.851-1.031l-.254-.967c1.291-.34 2.588-.675 3.889-1.005l.246.97c1.299-.33 2.603-.654 3.911-.973l-.237-.972a495.16 495.16 0 013.904-.935l.229.974a444.85 444.85 0 013.898-.898l-.22-.976c1.307-.295 2.618-.585 3.934-.871l.212.978c1.309-.284 2.622-.563 3.94-.837l-.204-.979a468.13 468.13 0 013.92-.799l.196.981c1.308-.261 2.621-.517 3.937-.769l-.187-.982c1.319-.252 2.642-.499 3.97-.741l.179.984c1.311-.239 2.625-.473 3.943-.703l-.171-.985c1.314-.228 2.631-.452 3.953-.671l.164.986c1.319-.219 2.642-.433 3.968-.642l-.155-.987c1.326-.209 2.657-.414 3.991-.613l.148.989a536.24 536.24 0 013.952-.575l-.14-.99c1.323-.187 2.65-.37 3.98-.548l.132.992a505.59 505.59 0 013.993-.518l-.124-.992c1.327-.167 2.658-.329 3.992-.486l.117.993c1.321-.156 2.646-.307 3.974-.453l-.109-.994c1.33-.147 2.664-.289 4.001-.426l.102.995c1.334-.137 2.671-.269 4.011-.396l-.094-.996c1.328-.126 2.658-.247 3.992-.363l.087.996c1.327-.116 2.658-.227 3.991-.334l-.079-.997c1.336-.106 2.674-.208 4.016-.305l.072.997c1.337-.097 2.677-.189 4.02-.276l-.065-.998c1.329-.086 2.661-.168 3.996-.245l.057.999a522.64 522.64 0 014.004-.216l-.05-.999c1.34-.067 2.682-.13 4.026-.188l.043 1c1.337-.058 2.676-.111 4.018-.158l-.036-1c1.333-.047 2.668-.09 4.005-.128l.028.999c1.335-.038 2.672-.071 4.012-.099l-.022-1c1.342-.029 2.686-.052 4.032-.071l.014 1a450.724 450.724 0 014.035-.043l-.007-1c1.346-.009 2.69-.013 4.032-.013v1c1.34.001 2.677.006 4.012.016l.008-1c1.338.01 2.673.025 4.007.045l-.015 1c1.342.019 2.682.044 4.02.073l.022-.999c1.345.029 2.688.064 4.029.103l-.029 1c1.338.039 2.674.083 4.007.132l.037-1c1.336.049 2.669.103 4 .162l-.044.999c1.344.059 2.686.123 4.025.191l.051-.998c1.343.069 2.684.143 4.022.221l-.059.999c1.335.078 2.668.162 3.998.25l.066-.998c1.336.089 2.668.182 3.998.28l-.073.997c1.342.099 2.682.203 4.019.312l.081-.996c1.34.109 2.676.222 4.009.341l-.089.996c1.331.119 2.659.242 3.983.37l.097-.995c1.337.129 2.671.263 4.001.402l-.104.995c1.338.14 2.672.284 4.003.434l.112-.994c1.334.15 2.664.305 3.991.464l-.12.993c1.325.159 2.646.323 3.963.492l.127-.992c1.338.172 2.673.348 4.004.529l-.135.991c1.331.182 2.658.368 3.981.559l.143-.99c1.326.191 2.648.388 3.967.589l-.151.988c1.323.202 2.641.409 3.956.62l.159-.987c1.333.214 2.661.433 3.985.658l-.167.986c1.322.223 2.639.452 3.953.685l.175-.984c1.316.234 2.628.473 3.936.716l-.183.983c1.323.247 2.642.498 3.956.755l.192-.982c1.321.258 2.639.521 3.951.789l-.199.98c1.309.267 2.615.539 3.916.816l.208-.978c1.312.279 2.62.564 3.923.853l-.217.976c1.315.292 2.625.589 3.93.891l.226-.974c1.308.302 2.611.61 3.91.923l-.234.972c1.295.312 2.586.628 3.871.95l.243-.97c1.312.328 2.619.662 3.921 1l-.252.968c1.3.338 2.594.681 3.882 1.029l.261-.965c1.292.348 2.578.702 3.859 1.061l-.27.963c1.294.362 2.583.73 3.866 1.103l.279-.961a417.2 417.2 0 013.867 1.144l-.288.957c1.28.386 2.555.776 3.823 1.172l.297-.955c1.282.4 2.558.804 3.827 1.214l-.307.952c1.283.414 2.559.833 3.829 1.257l.317-.948c1.273.425 2.54.855 3.8 1.291l-.327.945c1.262.436 2.518.878 3.767 1.324l.336-.941c1.275.455 2.542.916 3.803 1.382l-.347.938c1.257.465 2.507.935 3.75 1.41l.357-.934c1.248.477 2.489.959 3.723 1.447l-.367.93c1.257.496 2.506.998 3.748 1.505l.378-.926a350.32 350.32 0 013.712 1.541l-.389.922c1.227.517 2.446 1.04 3.657 1.568l.4-.916c1.243.542 2.478 1.089 3.705 1.642l-.411.912a313.37 313.37 0 013.643 1.67l.422-.907c1.211.564 2.414 1.134 3.607 1.708l-.434.901c1.219.587 2.429 1.179 3.629 1.777l.445-.896c1.205.6 2.399 1.205 3.585 1.815l-.458.889c1.186.61 2.363 1.226 3.53 1.847l.469-.883c1.198.638 2.385 1.28 3.562 1.928l-.482.876c1.172.646 2.335 1.298 3.488 1.954l.495-.869c1.166.665 2.322 1.335 3.467 2.011l-.508.861c1.163.686 2.314 1.377 3.454 2.074l.521-.854c1.145.7 2.278 1.404 3.4 2.115l-.535.845a231.96 231.96 0 013.369 2.172l.549-.836c1.13.741 2.247 1.489 3.353 2.242l-.563.826c1.1.75 2.189 1.505 3.264 2.266l.578-.817c1.107.783 2.202 1.572 3.283 2.367l-.592.806c1.08.793 2.147 1.593 3.2 2.398l.607-.795a213.07 213.07 0 013.159 2.463l-.623.783c1.056.84 2.097 1.685 3.123 2.536l.638-.769a186.67 186.67 0 013.051 2.584l-.654.756c1.018.881 2.02 1.768 3.007 2.661l.671-.742c1 .905 1.984 1.815 2.951 2.731l-.687.726c.97.918 1.923 1.842 2.859 2.771l.705-.709c.962.954 1.906 1.915 2.833 2.881l-.722.692c.921.961 1.825 1.927 2.711 2.899l.739-.674a153.071 153.071 0 012.685 3.026l-.757.654c.873 1.01 1.726 2.027 2.561 3.05l.775-.633a141.367 141.367 0 012.499 3.154l-.793.61a132.784 132.784 0 012.387 3.202l.811-.585a129.699 129.699 0 012.296 3.286l-.829.56a120.608 120.608 0 012.185 3.352l.847-.532a116.999 116.999 0 012.071 3.421l-.864.503c.675 1.16 1.327 2.325 1.954 3.496l.882-.472a110.791 110.791 0 011.826 3.561l-.899.44c.589 1.202 1.153 2.41 1.691 3.623l.914-.405a101.908 101.908 0 011.554 3.696l-.93.369c.493 1.24.959 2.485 1.398 3.735l.944-.332a97.054 97.054 0 011.252 3.815l-.956.292a95.357 95.357 0 011.082 3.83l.968-.251c.337 1.298.646 2.602.926 3.911l-.978.209c.277 1.296.526 2.598.746 3.904l.986-.166a90.1 90.1 0 01.58 3.979l-.993.122c.162 1.313.294 2.63.397 3.952l.997-.078z" stroke="#fff" stroke-width="2" stroke-dasharray="4 4"/><path d="M597.455 140.955c22.123 38.318 13.653 89.719-18.393 142.026-32.022 52.269-87.466 105.209-158.764 146.373-71.299 41.165-144.868 62.71-206.146 64.308-61.322 1.598-110.072-16.767-132.195-55.085-22.122-38.318-13.652-89.719 18.393-142.026 32.023-52.27 87.466-105.209 158.765-146.374 71.298-41.164 144.867-62.71 206.145-64.307 61.322-1.599 110.072 16.766 132.195 55.085z" stroke="#fff" stroke-width="2"/></svg>