<svg width="31" height="31" viewBox="0 0 31 31" fill="none" xmlns="http://www.w3.org/2000/svg"><g clip-path="url(#clip0_139_12)" fill="#AF1717"><path d="M16.021 15.785a4.494 4.494 0 002.47-.752 4.41 4.41 0 001.63-1.98 4.347 4.347 0 00.244-2.541 4.383 4.383 0 00-1.227-2.247 4.472 4.472 0 00-2.284-1.195 4.506 4.506 0 00-2.571.258 4.44 4.44 0 00-1.994 1.625 4.36 4.36 0 00.572 5.555 4.484 4.484 0 003.161 1.277zm0-6.208c.363 0 .719.107 1.02.306.303.2.539.482.678.814a1.794 1.794 0 01-.396 1.978 1.86 1.86 0 01-2.002.396 1.834 1.834 0 01-.826-.666 1.799 1.799 0 01-.312-1.008 1.762 1.762 0 01.527-1.296 1.806 1.806 0 011.311-.524zm1.784 9.813a8.483 8.483 0 002.585-1.053 1.282 1.282 0 00.378-1.775 1.326 1.326 0 00-1.79-.408 5.71 5.71 0 01-5.994 0 1.338 1.338 0 00-1.806.394 1.3 1.3 0 00-.135.97c.084.329.293.613.583.793.796.49 1.669.846 2.583 1.052l-2.477 2.447a1.28 1.28 0 000 1.815 1.269 1.269 0 00.933.369c.346-.003.679-.135.932-.369l2.45-2.42 2.451 2.42a1.308 1.308 0 001.838 0 1.275 1.275 0 000-1.815l-2.531-2.42z"/></g><defs><clipPath id="clip0_139_12"><path fill="#fff" transform="translate(11 7)" d="M0 0h10v17H0z"/></clipPath></defs></svg>