<svg width="31" height="32" viewBox="0 0 31 32" fill="none" xmlns="http://www.w3.org/2000/svg"><path d="M23.25 8.892L20.305 23.71a.907.907 0 01-.93.682 1.023 1.023 0 01-.674-.21L12.4 18.968l-3.1-1.55-3.945-1.054s-.705-.201-.705-.775c0-.573.72-.713.72-.713l16.524-6.564a3.27 3.27 0 01.875-.194c.225 0 .48.093.48.388.012.129.012.258 0 .387z" fill="#AF1717"/><path d="M14.725 20.904l-2.658 2.62a.504.504 0 01-.264.093.442.442 0 01-.178 0l.775-4.65 2.325 1.937z" fill="#B0BEC5"/><path d="M20.072 11.37a.395.395 0 00-.542-.077L9.3 17.416s1.635 4.564 1.883 5.355c.248.79.442.845.442.845l.775-4.65 7.618-7.053a.381.381 0 00.054-.542z" fill="#CFD8DC"/></svg>