<svg width="428" height="233" viewBox="0 0 428 233" fill="none" xmlns="http://www.w3.org/2000/svg">
<path d="M427.345 110.04C427.469 111.366 427.553 112.698 427.595 114.036L426.595 114.067C426.616 114.725 426.626 115.385 426.626 116.046C426.626 116.707 426.616 117.367 426.595 118.025L427.595 118.056C427.553 119.394 427.469 120.726 427.345 122.052L426.349 121.959C426.226 123.27 426.062 124.576 425.858 125.876L426.846 126.031C426.639 127.349 426.392 128.661 426.104 129.967L425.127 129.752C424.845 131.036 424.523 132.313 424.162 133.584L425.124 133.857C424.761 135.137 424.359 136.409 423.92 137.675L422.975 137.347C422.546 138.585 422.079 139.816 421.576 141.04L422.501 141.42C421.994 142.653 421.452 143.878 420.874 145.096L419.97 144.667C419.41 145.847 418.816 147.02 418.188 148.186L419.068 148.66C418.439 149.829 417.777 150.989 417.083 152.142L416.226 151.626C415.548 152.752 414.838 153.871 414.098 154.981L414.93 155.536C414.197 156.635 413.435 157.727 412.643 158.81L411.836 158.22C411.06 159.282 410.256 160.336 409.424 161.382L410.206 162.005C409.382 163.041 408.531 164.069 407.654 165.089L406.896 164.437C406.04 165.431 405.159 166.418 404.253 167.397L404.987 168.076C404.083 169.053 403.155 170.021 402.202 170.981L401.492 170.277C400.571 171.206 399.627 172.127 398.66 173.041L399.346 173.768C398.378 174.683 397.388 175.589 396.376 176.488L395.712 175.741C394.732 176.61 393.732 177.472 392.711 178.327L393.353 179.093C392.334 179.947 391.294 180.792 390.235 181.63L389.615 180.846C388.584 181.661 387.534 182.469 386.466 183.269L387.065 184.07C386.002 184.866 384.921 185.654 383.823 186.434L383.244 185.619C382.169 186.382 381.078 187.138 379.969 187.886L380.528 188.715C379.429 189.457 378.312 190.192 377.18 190.919L376.64 190.078C375.529 190.791 374.402 191.497 373.26 192.195L373.782 193.048C372.65 193.74 371.503 194.425 370.341 195.102L369.837 194.238C368.696 194.904 367.54 195.562 366.37 196.212L366.856 197.086C365.696 197.732 364.521 198.37 363.333 199L362.865 198.117C361.698 198.737 360.518 199.349 359.325 199.954L359.777 200.846C358.591 201.447 357.392 202.041 356.181 202.628L355.745 201.728C354.557 202.304 353.356 202.873 352.144 203.434L352.565 204.342C351.355 204.902 350.134 205.455 348.902 206L348.497 205.086C347.291 205.62 346.074 206.147 344.846 206.667L345.236 207.588C344.005 208.109 342.764 208.622 341.512 209.129L341.137 208.202C339.916 208.696 338.685 209.183 337.443 209.663L337.804 210.596C336.558 211.077 335.302 211.552 334.037 212.02L333.69 211.082C332.453 211.539 331.206 211.99 329.949 212.433L330.282 213.376C329.026 213.82 327.76 214.256 326.485 214.686L326.166 213.738C324.91 214.161 323.646 214.577 322.374 214.986L322.68 215.938C321.414 216.345 320.141 216.745 318.859 217.138L318.565 216.182C317.293 216.572 316.013 216.954 314.725 217.33L315.005 218.29C313.733 218.662 312.452 219.026 311.165 219.384L310.897 218.421C309.613 218.777 308.322 219.127 307.023 219.47L307.278 220.437C305.996 220.775 304.707 221.107 303.41 221.431L303.167 220.461C301.879 220.784 300.583 221.1 299.281 221.409L299.512 222.382C298.215 222.69 296.912 222.991 295.602 223.285L295.383 222.31C294.09 222.6 292.792 222.883 291.487 223.16L291.694 224.138C290.386 224.416 289.07 224.687 287.749 224.95L287.553 223.97C286.257 224.229 284.955 224.481 283.646 224.726L283.831 225.709C282.52 225.955 281.204 226.194 279.882 226.427L279.709 225.442C278.4 225.672 277.085 225.896 275.764 226.112L275.926 227.099C274.615 227.314 273.298 227.523 271.976 227.725L271.825 226.736C270.506 226.938 269.183 227.132 267.854 227.32L267.994 228.31C266.679 228.496 265.359 228.675 264.035 228.848L263.906 227.856C262.588 228.028 261.265 228.193 259.937 228.351L260.056 229.344C258.729 229.502 257.399 229.654 256.063 229.798L255.956 228.804C254.638 228.947 253.317 229.083 251.991 229.212L252.088 230.208C250.758 230.338 249.425 230.461 248.087 230.577L248 229.581C246.677 229.696 245.35 229.804 244.019 229.906L244.095 230.903C242.768 231.005 241.436 231.1 240.101 231.188L240.035 230.19C238.703 230.278 237.367 230.359 236.028 230.434L236.084 231.432C234.758 231.506 233.428 231.573 232.095 231.634L232.049 230.635C230.72 230.695 229.388 230.749 228.052 230.796L228.087 231.796C226.752 231.843 225.414 231.883 224.072 231.917L224.047 230.917C222.721 230.95 221.392 230.977 220.06 230.997L220.075 231.997C218.74 232.017 217.401 232.031 216.06 232.037L216.055 231.037C215.386 231.041 214.716 231.042 214.046 231.042C213.375 231.042 212.706 231.041 212.037 231.037L212.032 232.037C210.69 232.031 209.352 232.017 208.016 231.997L208.032 230.997C206.7 230.977 205.371 230.95 204.045 230.917L204.02 231.917C202.678 231.883 201.339 231.843 200.004 231.796L200.04 230.796C198.704 230.749 197.371 230.695 196.042 230.635L195.997 231.634C194.664 231.573 193.334 231.506 192.008 231.432L192.064 230.434C190.724 230.359 189.389 230.278 188.057 230.19L187.991 231.188C186.656 231.1 185.324 231.005 183.997 230.903L184.073 229.906C182.742 229.804 181.415 229.696 180.092 229.581L180.005 230.577C178.667 230.461 177.333 230.338 176.004 230.208L176.101 229.212C174.775 229.083 173.453 228.947 172.136 228.804L172.028 229.798C170.693 229.654 169.362 229.502 168.036 229.344L168.154 228.351C166.827 228.193 165.504 228.028 164.186 227.856L164.057 228.848C162.732 228.675 161.412 228.496 160.098 228.31L160.237 227.32C158.909 227.132 157.585 226.938 156.267 226.736L156.116 227.725C154.794 227.523 153.477 227.314 152.165 227.099L152.327 226.112C151.007 225.896 149.692 225.672 148.383 225.442L148.21 226.427C146.888 226.194 145.571 225.955 144.261 225.709L144.445 224.726C143.137 224.481 141.835 224.229 140.538 223.97L140.342 224.95C139.021 224.687 137.706 224.416 136.397 224.138L136.605 223.16C135.3 222.883 134.001 222.6 132.709 222.31L132.49 223.285C131.18 222.991 129.876 222.69 128.58 222.382L128.811 221.409C127.508 221.1 126.213 220.784 124.924 220.461L124.681 221.431C123.385 221.107 122.095 220.775 120.813 220.437L121.068 219.47C119.77 219.127 118.478 218.777 117.195 218.421L116.927 219.384C115.639 219.026 114.359 218.662 113.086 218.29L113.367 217.33C112.078 216.954 110.798 216.571 109.526 216.182L109.233 217.138C107.951 216.745 106.677 216.345 105.412 215.938L105.718 214.986C104.445 214.577 103.181 214.161 101.926 213.738L101.606 214.686C100.332 214.256 99.066 213.82 97.8094 213.376L98.1423 212.433C96.886 211.99 95.639 211.539 94.4014 211.082L94.0548 212.02C92.7892 211.552 91.5334 211.077 90.2874 210.596L90.6482 209.663C89.407 209.183 88.1758 208.696 86.9548 208.202L86.5797 209.129C85.3279 208.622 84.0866 208.109 82.8561 207.588L83.2459 206.667C82.0179 206.147 80.8008 205.62 79.5947 205.086L79.1898 206C77.9574 205.455 76.7364 204.902 75.5271 204.342L75.9474 203.434C74.7353 202.873 73.535 202.304 72.3468 201.728L71.9108 202.628C70.6995 202.041 69.5007 201.447 68.3145 200.846L68.7668 199.954C67.5739 199.349 66.3939 198.736 65.2271 198.117L64.7582 199C63.5703 198.37 62.3959 197.732 61.2352 197.086L61.7212 196.212C60.5514 195.562 59.3957 194.904 58.2545 194.238L57.7509 195.102C56.589 194.425 55.4418 193.74 54.3097 193.048L54.8313 192.195C53.6893 191.497 52.5628 190.791 51.4521 190.078L50.9118 190.919C49.7793 190.192 48.663 189.457 47.5631 188.715L48.1226 187.886C47.0139 187.138 45.9223 186.382 44.848 185.619L44.2689 186.434C43.1702 185.654 42.0893 184.866 41.0266 184.07L41.6261 183.269C40.5575 182.469 39.5076 181.661 38.4767 180.846L37.8563 181.63C36.7971 180.792 35.7577 179.947 34.7383 179.093L35.3802 178.327C34.3595 177.472 33.3594 176.61 32.38 175.741L31.7161 176.488C30.7037 175.589 29.7133 174.683 28.7452 173.768L29.4319 173.041C28.4649 172.127 27.5206 171.206 26.5993 170.277L25.8893 170.981C24.9367 170.021 24.0083 169.052 23.1045 168.076L23.8384 167.397C22.9322 166.418 22.0513 165.431 21.196 164.437L20.438 165.089C19.5603 164.069 18.7092 163.041 17.8852 162.005L18.6678 161.382C17.8355 160.336 17.0313 159.282 16.2557 158.22L15.4482 158.81C14.6567 157.727 13.8943 156.635 13.1616 155.536L13.9937 154.981C13.2531 153.87 12.5435 152.752 11.8654 151.626L11.0087 152.142C10.3144 150.989 9.65237 149.828 9.0233 148.66L9.90379 148.186C9.27608 147.02 8.68179 145.847 8.12145 144.667L7.21811 145.096C6.63998 143.878 6.09735 142.653 5.59085 141.42L6.51581 141.04C6.01279 139.816 5.54604 138.584 5.11615 137.346L4.17148 137.675C3.73213 136.409 3.33061 135.137 2.96758 133.857L3.92961 133.584C3.56895 132.313 3.24693 131.036 2.96418 129.752L1.98758 129.967C1.70009 128.661 1.45252 127.349 1.24556 126.031L2.23346 125.876C2.02944 124.576 1.86551 123.27 1.74233 121.959L0.746716 122.052C0.622161 120.726 0.538619 119.394 0.496764 118.056L1.49627 118.025C1.47567 117.367 1.46533 116.707 1.46533 116.046C1.46533 115.385 1.47567 114.725 1.49628 114.067L0.496765 114.036C0.53862 112.698 0.622164 111.366 0.74672 110.04L1.74234 110.133C1.86552 108.822 2.02945 107.516 2.23347 106.216L1.24557 106.061C1.45254 104.743 1.70011 103.431 1.9876 102.125L2.9642 102.34C3.24695 101.056 3.56897 99.7786 3.92963 98.5076L2.9676 98.2346C3.33063 96.9552 3.73215 95.6827 4.1715 94.4175L5.11617 94.7455C5.54606 93.5075 6.01282 92.2762 6.51584 91.0519L5.59087 90.6719C6.09738 89.4391 6.64001 88.2138 7.21814 86.9962L8.12148 87.4251C8.68182 86.2449 9.27611 85.0718 9.90381 83.906L9.02333 83.4319C9.6524 82.2635 10.3144 81.1028 11.0088 79.95L11.8654 80.466C12.5436 79.3401 13.2532 78.2215 13.9937 77.1106L13.1617 76.5559C13.8943 75.4568 14.6567 74.3654 15.4483 73.282L16.2557 73.872C17.0314 72.8104 17.8356 71.7563 18.6678 70.7099L17.8852 70.0874C18.7093 69.0513 19.5604 68.023 20.438 67.0029L21.1961 67.655C22.0513 66.6608 22.9323 65.6741 23.8384 64.6952L23.1046 64.0159C24.0083 63.0395 24.9367 62.071 25.8893 61.1107L26.5993 61.8149C27.5206 60.8861 28.465 59.9647 29.432 59.051L28.7452 58.3242C29.7133 57.4094 30.7038 56.5025 31.7161 55.6037L32.3801 56.3515C33.3594 55.482 34.3596 54.6199 35.3802 53.7654L34.7383 52.9986C35.7577 52.1453 36.7972 51.2996 37.8564 50.4619L38.4767 51.2463C39.5076 50.4309 40.5575 49.623 41.6261 48.8227L41.0266 48.0223C42.0893 47.2264 43.1702 46.4381 44.2689 45.6576L44.848 46.4729C45.9223 45.7097 47.014 44.954 48.1226 44.2058L47.5632 43.3769C48.663 42.6346 49.7793 41.8998 50.9119 41.1728L51.4521 42.0143C52.5628 41.3012 53.6894 40.5954 54.8314 39.8971L54.3097 39.044C55.4419 38.3517 56.589 37.6669 57.7509 36.9897L58.2545 37.8536C59.3958 37.1884 60.5514 36.5304 61.7212 35.8799L61.2352 35.0059C62.3959 34.3605 63.5703 33.7224 64.7582 33.0917L65.2271 33.975C66.3939 33.3555 67.5739 32.7432 68.7668 32.1383L68.3145 31.2464C69.5007 30.6449 70.6996 30.0506 71.9108 29.4637L72.3469 30.3636C73.5351 29.7878 74.7353 29.2192 75.9474 28.6578L75.5271 27.7504C76.7365 27.1902 77.9575 26.6373 79.1899 26.0917L79.5947 27.0061C80.8008 26.4721 82.0179 25.9451 83.2459 25.4253L82.8561 24.5044C84.0866 23.9835 85.3279 23.4698 86.5798 22.9633L86.9548 23.8903C88.1758 23.3963 89.4071 22.9092 90.6482 22.4292L90.2875 21.4965C91.5334 21.0146 92.7892 20.5398 94.0548 20.0722L94.4014 21.0102C95.639 20.5529 96.8861 20.1025 98.1423 19.659L97.8095 18.7161C99.0661 18.2725 100.332 17.8359 101.606 17.4065L101.926 18.3541C103.181 17.9311 104.445 17.515 105.718 17.1058L105.412 16.1538C106.677 15.747 107.951 15.3472 109.233 14.9543L109.526 15.9104C110.798 15.5205 112.078 15.1376 113.367 14.7616L113.086 13.8016C114.359 13.4302 115.639 13.0656 116.927 12.7079L117.195 13.6714C118.478 13.3148 119.77 12.9651 121.068 12.6224L120.813 11.6555C122.095 11.3171 123.385 10.9854 124.681 10.6606L124.924 11.6306C126.213 11.3078 127.508 10.9918 128.811 10.6826L128.58 9.70965C129.876 9.4018 131.18 9.10073 132.49 8.80653L132.709 9.78224C134.001 9.49206 135.3 9.20858 136.605 8.93189L136.397 7.95364C137.706 7.67612 139.021 7.40541 140.342 7.14159L140.538 8.12223C141.835 7.86334 143.137 7.6111 144.445 7.36558L144.261 6.38274C145.571 6.1368 146.888 5.89759 148.21 5.66519L148.383 6.65009C149.692 6.4199 151.007 6.19641 152.327 5.97969L152.165 4.9929C153.477 4.77763 154.794 4.56902 156.116 4.36715L156.267 5.35569C157.585 5.15438 158.909 4.95979 160.237 4.77199L160.098 3.78183C161.412 3.59598 162.732 3.41676 164.057 3.24424L164.186 4.23586C165.504 4.06419 166.827 3.89918 168.154 3.74088L168.036 2.74792C169.362 2.58979 170.693 2.43836 172.028 2.29369L172.136 3.28787C173.453 3.14514 174.775 3.00901 176.101 2.87953L176.004 1.88427C177.333 1.75445 178.667 1.63132 180.005 1.51494L180.092 2.51118C181.415 2.39609 182.742 2.28762 184.073 2.18583L183.997 1.18874C185.324 1.08722 186.656 0.992329 187.991 0.904128L188.057 1.90195C189.389 1.81398 190.724 1.73268 192.064 1.65812L192.008 0.659666C193.334 0.585839 194.664 0.518602 195.997 0.458015L196.042 1.45698C197.371 1.39659 198.704 1.34282 200.04 1.29574L200.004 0.296361C201.34 0.249301 202.678 0.208904 204.02 0.175231L204.045 1.17492C205.371 1.14164 206.7 1.11495 208.032 1.0949L208.016 0.0950125C209.352 0.07491 210.69 0.0614642 212.032 0.054734L212.037 1.05472C212.706 1.05136 213.375 1.04968 214.046 1.04968C214.716 1.04968 215.386 1.05136 216.055 1.05472L216.06 0.054734C217.401 0.0614643 218.74 0.0749101 220.075 0.0950125L220.06 1.0949C221.392 1.11495 222.721 1.14164 224.047 1.17492L224.072 0.175231C225.414 0.208905 226.752 0.249303 228.087 0.296363L228.052 1.29574C229.388 1.34282 230.72 1.39659 232.049 1.45699L232.095 0.458016C233.428 0.518603 234.758 0.58584 236.084 0.659667L236.028 1.65812C237.367 1.73268 238.703 1.81398 240.035 1.90196L240.101 0.90413C241.436 0.992331 242.768 1.08722 244.095 1.18875L244.019 2.18583C245.35 2.28762 246.677 2.39609 248 2.51118L248.087 1.51494C249.425 1.63132 250.758 1.75446 252.088 1.88427L251.991 2.87954C253.317 3.00901 254.638 3.14514 255.956 3.28788L256.064 2.29369C257.399 2.43837 258.729 2.5898 260.056 2.74792L259.937 3.74089C261.265 3.89918 262.588 4.0642 263.906 4.23587L264.035 3.24424C265.359 3.41676 266.679 3.59598 267.994 3.78183L267.854 4.77199C269.183 4.9598 270.506 5.15439 271.825 5.3557L271.976 4.36715C273.298 4.56902 274.615 4.77763 275.926 4.9929L275.764 5.9797C277.085 6.19642 278.4 6.41991 279.709 6.6501L279.882 5.6652C281.204 5.8976 282.52 6.1368 283.831 6.38274L283.646 7.36558C284.955 7.6111 286.257 7.86334 287.554 8.12223L287.749 7.14159C289.071 7.40541 290.386 7.67612 291.694 7.95364L291.487 8.93189C292.792 9.20858 294.09 9.49206 295.383 9.78224L295.602 8.80654C296.912 9.10073 298.215 9.4018 299.512 9.70966L299.281 10.6826C300.583 10.9918 301.879 11.3078 303.167 11.6306L303.41 10.6606C304.707 10.9854 305.996 11.3171 307.279 11.6555L307.023 12.6224C308.322 12.9652 309.613 13.3149 310.897 13.6714L311.165 12.7079C312.452 13.0656 313.733 13.4302 315.005 13.8016L314.725 14.7616C316.013 15.1376 317.293 15.5205 318.566 15.9104L318.859 14.9543C320.141 15.3472 321.414 15.7471 322.68 16.1538L322.374 17.1058C323.646 17.515 324.911 17.9311 326.166 18.3541L326.485 17.4065C327.76 17.836 329.026 18.2725 330.282 18.7161L329.949 19.659C331.206 20.1025 332.453 20.5529 333.69 21.0102L334.037 20.0722C335.302 20.5398 336.558 21.0146 337.804 21.4965L337.443 22.4292C338.685 22.9092 339.916 23.3963 341.137 23.8903L341.512 22.9633C342.764 23.4698 344.005 23.9835 345.236 24.5044L344.846 25.4253C346.074 25.9451 347.291 26.4721 348.497 27.0061L348.902 26.0917C350.134 26.6373 351.355 27.1903 352.565 27.7504L352.144 28.6578C353.356 29.2192 354.557 29.7879 355.745 30.3636L356.181 29.4637C357.392 30.0506 358.591 30.6449 359.777 31.2464L359.325 32.1383C360.518 32.7433 361.698 33.3555 362.865 33.975L363.333 33.0917C364.521 33.7224 365.696 34.3605 366.856 35.006L366.37 35.8799C367.54 36.5305 368.696 37.1884 369.837 37.8536L370.341 36.9897C371.503 37.6669 372.65 38.3518 373.782 39.044L373.26 39.8971C374.402 40.5954 375.529 41.3012 376.64 42.0143L377.18 41.1728C378.312 41.8999 379.429 42.6346 380.529 43.3769L379.969 44.2058C381.078 44.954 382.169 45.7097 383.244 46.4729L383.823 45.6577C384.921 46.4381 386.002 47.2264 387.065 48.0223L386.466 48.8227C387.534 49.623 388.584 50.4309 389.615 51.2463L390.235 50.4619C391.295 51.2996 392.334 52.1453 393.353 52.9987L392.711 53.7654C393.732 54.6199 394.732 55.482 395.712 56.3515L396.376 55.6037C397.388 56.5026 398.378 57.4095 399.346 58.3242L398.66 59.0511C399.627 59.9648 400.571 60.8861 401.492 61.8149L402.202 61.1107C403.155 62.0711 404.083 63.0396 404.987 64.0159L404.253 64.6952C405.159 65.6742 406.04 66.6609 406.896 67.6551L407.654 67.0029C408.531 68.0231 409.382 69.0514 410.206 70.0874L409.424 70.7099C410.256 71.7563 411.06 72.8104 411.836 73.872L412.643 73.2821C413.435 74.3654 414.197 75.4568 414.93 76.556L414.098 77.1106C414.839 78.2216 415.548 79.3401 416.226 80.466L417.083 79.9501C417.777 81.1028 418.439 82.2636 419.068 83.4319L418.188 83.906C418.816 85.0718 419.41 86.245 419.97 87.4251L420.874 86.9962C421.452 88.2138 421.994 89.4392 422.501 90.6719L421.576 91.052C422.079 92.2762 422.546 93.5075 422.975 94.7455L423.92 94.4175C424.36 95.6828 424.761 96.9553 425.124 98.2347L424.162 98.5076C424.523 99.7787 424.845 101.056 425.127 102.34L426.104 102.125C426.392 103.431 426.639 104.743 426.846 106.061L425.858 106.216C426.062 107.516 426.226 108.822 426.349 110.133L427.345 110.04Z" stroke="white" stroke-width="2" stroke-dasharray="4 4"/>
</svg>
