<svg width="680" height="640" viewBox="0 0 680 640" fill="none" xmlns="http://www.w3.org/2000/svg">
<path d="M658.026 465.141C658.13 466.476 658.204 467.814 658.248 469.157L657.249 469.19C657.271 469.854 657.285 470.519 657.292 471.185C657.299 471.851 657.298 472.516 657.29 473.18L658.29 473.192C658.274 474.535 658.228 475.875 658.152 477.211L657.154 477.154C657.079 478.478 656.974 479.798 656.84 481.114L657.835 481.215C657.699 482.549 657.533 483.879 657.338 485.205L656.349 485.06C656.156 486.37 655.935 487.677 655.685 488.979L656.667 489.167C656.414 490.482 656.133 491.791 655.823 493.097L654.85 492.866C654.544 494.154 654.21 495.438 653.848 496.717L654.811 496.989C654.447 498.274 654.057 499.554 653.638 500.83L652.688 500.518C652.275 501.777 651.835 503.031 651.369 504.281L652.305 504.631C651.84 505.878 651.347 507.121 650.829 508.359L649.907 507.973C649.394 509.197 648.856 510.416 648.293 511.631L649.2 512.052C648.641 513.256 648.057 514.456 647.449 515.65L646.558 515.196C645.955 516.38 645.328 517.559 644.677 518.732L645.552 519.217C644.908 520.377 644.242 521.532 643.552 522.681L642.695 522.167C642.012 523.305 641.307 524.437 640.58 525.564L641.42 526.106C640.7 527.223 639.957 528.334 639.194 529.44L638.371 528.872C637.619 529.961 636.845 531.045 636.051 532.123L636.857 532.716C636.066 533.79 635.255 534.859 634.424 535.922L633.636 535.306C632.823 536.345 631.991 537.38 631.139 538.409L631.91 539.046C631.055 540.079 630.181 541.106 629.289 542.128L628.536 541.47C627.671 542.46 626.788 543.445 625.887 544.424L626.623 545.101C625.716 546.087 624.792 547.067 623.851 548.041L623.131 547.346C622.214 548.295 621.281 549.239 620.33 550.177L621.033 550.888C620.085 551.825 619.12 552.755 618.139 553.68L617.453 552.953C616.485 553.866 615.501 554.774 614.502 555.676L615.172 556.418C614.188 557.306 613.19 558.189 612.176 559.066L611.522 558.31C610.513 559.182 609.49 560.049 608.453 560.911L609.091 561.68C608.07 562.529 607.035 563.371 605.985 564.209L605.362 563.427C604.325 564.254 603.276 565.076 602.212 565.892L602.821 566.685C601.757 567.502 600.679 568.314 599.588 569.12L598.994 568.316C597.934 569.099 596.862 569.876 595.777 570.649L596.357 571.463C595.268 572.239 594.166 573.01 593.052 573.775L592.486 572.951C591.39 573.703 590.283 574.451 589.163 575.193L589.716 576.026C588.609 576.76 587.49 577.488 586.361 578.211L585.822 577.369C584.696 578.09 583.56 578.805 582.412 579.514L582.938 580.365C581.807 581.064 580.666 581.758 579.513 582.447L579 581.589C577.862 582.27 576.713 582.945 575.554 583.616L576.054 584.481C574.891 585.154 573.718 585.821 572.534 586.483L572.046 585.611C570.892 586.256 569.729 586.896 568.556 587.531L569.032 588.411C567.86 589.045 566.678 589.675 565.486 590.3L565.022 589.414C563.835 590.036 562.638 590.654 561.432 591.266L561.884 592.157C560.703 592.757 559.512 593.351 558.313 593.941L557.872 593.043C556.679 593.63 555.476 594.212 554.265 594.789L554.695 595.692C553.48 596.27 552.257 596.843 551.025 597.411L550.606 596.503C549.407 597.057 548.199 597.605 546.983 598.148L547.391 599.061C546.173 599.606 544.946 600.145 543.712 600.68L543.315 599.762C542.084 600.295 540.846 600.823 539.599 601.345L539.986 602.268C538.763 602.781 537.532 603.289 536.293 603.792L535.917 602.866C534.684 603.367 533.444 603.863 532.197 604.354L532.564 605.284C531.313 605.776 530.056 606.264 528.791 606.746L528.435 605.811C527.196 606.284 525.949 606.751 524.697 607.214L525.043 608.152C523.792 608.614 522.535 609.071 521.271 609.523L520.935 608.581C519.674 609.032 518.407 609.477 517.133 609.918L517.46 610.863C516.199 611.299 514.932 611.731 513.659 612.157L513.342 611.209C512.082 611.631 510.816 612.048 509.544 612.46L509.853 613.411C508.578 613.824 507.297 614.232 506.01 614.635L505.711 613.681C504.436 614.081 503.155 614.475 501.869 614.864L502.159 615.822C500.886 616.207 499.607 616.588 498.323 616.963L498.042 616.004C496.761 616.378 495.474 616.748 494.182 617.113L494.454 618.076C493.16 618.441 491.86 618.802 490.555 619.158L490.292 618.193C489.014 618.542 487.73 618.885 486.441 619.224L486.696 620.191C485.404 620.531 484.108 620.866 482.806 621.196L482.56 620.226C481.261 620.556 479.958 620.88 478.649 621.199L478.886 622.171C477.59 622.487 476.288 622.799 474.982 623.106L474.754 622.132C473.459 622.436 472.159 622.736 470.855 623.03L471.076 624.006C469.769 624.301 468.457 624.591 467.141 624.877L466.929 623.899C465.621 624.183 464.307 624.462 462.989 624.737L463.193 625.716C461.891 625.987 460.584 626.253 459.273 626.514L459.077 625.534C457.769 625.794 456.457 626.051 455.14 626.302L455.328 627.284C454.008 627.536 452.685 627.783 451.357 628.025L451.178 627.041C449.868 627.28 448.554 627.514 447.235 627.744L447.407 628.729C446.093 628.958 444.775 629.182 443.453 629.401L443.29 628.414C441.971 628.633 440.648 628.847 439.321 629.056L439.477 630.044C438.15 630.253 436.819 630.457 435.485 630.656L435.337 629.667C434.024 629.864 432.706 630.055 431.386 630.242L431.526 631.232C430.203 631.42 428.876 631.602 427.545 631.78L427.413 630.788C426.085 630.966 424.754 631.138 423.42 631.306L423.545 632.298C422.217 632.465 420.887 632.627 419.553 632.784L419.436 631.791C418.114 631.947 416.789 632.098 415.461 632.245L415.571 633.239C414.24 633.385 412.906 633.527 411.57 633.664L411.468 632.669C410.134 632.806 408.796 632.938 407.456 633.065L407.55 634.061C406.223 634.187 404.892 634.308 403.559 634.424L403.472 633.428C402.144 633.544 400.813 633.655 399.48 633.762L399.56 634.759C398.224 634.865 396.885 634.967 395.544 635.064L395.471 634.067C394.134 634.164 392.794 634.256 391.451 634.343L391.516 635.341C390.187 635.427 388.855 635.509 387.52 635.586L387.463 634.587C386.131 634.664 384.796 634.736 383.459 634.803L383.509 635.802C382.17 635.869 380.828 635.932 379.483 635.99L379.44 634.991C378.104 635.048 376.764 635.101 375.423 635.148L375.458 636.148C374.126 636.195 372.791 636.238 371.454 636.276L371.425 635.277C370.09 635.315 368.753 635.348 367.414 635.376L367.435 636.376C366.093 636.405 364.749 636.428 363.403 636.447L363.389 635.448C362.717 635.457 362.045 635.465 361.372 635.472C360.699 635.479 360.027 635.485 359.355 635.49L359.362 636.49C358.015 636.499 356.671 636.503 355.329 636.503L355.329 635.503C353.99 635.502 352.652 635.497 351.317 635.487L351.309 636.487C349.972 636.477 348.636 636.462 347.303 636.442L347.317 635.443C345.975 635.423 344.635 635.398 343.298 635.369L343.276 636.368C341.93 636.339 340.587 636.304 339.246 636.265L339.276 635.265C337.937 635.226 336.601 635.182 335.268 635.133L335.231 636.133C333.896 636.084 332.562 636.03 331.231 635.972L331.275 634.972C329.931 634.913 328.589 634.849 327.25 634.781L327.199 635.779C325.856 635.71 324.515 635.636 323.178 635.558L323.236 634.559C321.901 634.481 320.568 634.398 319.238 634.309L319.172 635.307C317.837 635.219 316.504 635.125 315.174 635.027L315.248 634.03C313.905 633.931 312.565 633.827 311.228 633.718L311.147 634.715C309.808 634.606 308.472 634.492 307.138 634.373L307.227 633.377C305.896 633.258 304.568 633.135 303.244 633.007L303.148 634.002C301.811 633.873 300.477 633.739 299.146 633.6L299.25 632.605C297.913 632.465 296.578 632.321 295.247 632.171L295.135 633.165C293.802 633.015 292.471 632.86 291.145 632.701L291.264 631.708C289.94 631.549 288.619 631.385 287.301 631.216L287.174 632.208C285.836 632.036 284.501 631.86 283.17 631.679L283.305 630.688C281.975 630.507 280.648 630.32 279.324 630.129L279.181 631.119C277.855 630.928 276.533 630.731 275.215 630.53L275.365 629.542C274.043 629.34 272.724 629.133 271.409 628.922L271.25 629.909C269.918 629.695 268.589 629.476 267.265 629.252L267.432 628.266C266.111 628.042 264.793 627.813 263.48 627.58L263.305 628.564C261.988 628.33 260.676 628.092 259.369 627.848L259.552 626.865C258.229 626.618 256.91 626.367 255.595 626.11L255.404 627.092C254.082 626.834 252.765 626.571 251.452 626.303L251.652 625.323C250.342 625.056 249.036 624.784 247.736 624.507L247.527 625.485C246.215 625.206 244.908 624.922 243.605 624.632L243.822 623.656C242.506 623.364 241.196 623.067 239.891 622.765L239.665 623.739C238.357 623.437 237.054 623.129 235.756 622.817L235.99 621.844C234.694 621.532 233.404 621.216 232.118 620.894L231.875 621.864C230.563 621.536 229.256 621.202 227.954 620.864L228.206 619.896C226.907 619.558 225.613 619.215 224.324 618.867L224.063 619.832C222.772 619.484 221.485 619.13 220.205 618.771L220.474 617.808C219.18 617.446 217.891 617.078 216.609 616.706L216.33 617.666C215.035 617.29 213.745 616.909 212.462 616.522L212.75 615.565C211.47 615.179 210.196 614.789 208.927 614.393L208.63 615.348C207.348 614.949 206.072 614.544 204.803 614.134L205.11 613.182C203.827 612.768 202.551 612.349 201.281 611.925L200.964 612.873C199.691 612.448 198.425 612.018 197.165 611.582L197.492 610.637C196.229 610.201 194.974 609.759 193.725 609.313L193.388 610.255C192.114 609.799 190.846 609.338 189.586 608.872L189.933 607.934C188.675 607.469 187.425 606.999 186.183 606.524L185.826 607.459C184.577 606.981 183.336 606.499 182.102 606.012L182.469 605.082C181.212 604.585 179.963 604.083 178.722 603.576L178.343 604.502C177.098 603.993 175.861 603.48 174.631 602.961L175.02 602.039C173.793 601.522 172.574 600.999 171.363 600.471L170.964 601.387C169.72 600.845 168.485 600.298 167.259 599.745L167.67 598.833C166.447 598.282 165.232 597.725 164.027 597.164L163.604 598.07C162.393 597.506 161.191 596.936 159.997 596.362L160.431 595.461C159.212 594.874 158.003 594.282 156.803 593.685L156.357 594.58C155.153 593.98 153.958 593.375 152.772 592.765L153.23 591.876C152.044 591.266 150.868 590.65 149.701 590.029L149.231 590.912C148.034 590.275 146.846 589.632 145.669 588.984L146.152 588.108C144.979 587.462 143.816 586.81 142.664 586.154L142.169 587.023C141.002 586.358 139.846 585.688 138.701 585.012L139.209 584.151C138.047 583.465 136.896 582.774 135.756 582.078L135.234 582.931C134.09 582.232 132.956 581.527 131.834 580.816L132.369 579.971C131.234 579.253 130.111 578.529 129 577.799L128.451 578.635C127.321 577.894 126.204 577.146 125.099 576.393L125.662 575.567C124.561 574.817 123.473 574.062 122.397 573.302L121.82 574.118C120.712 573.335 119.617 572.546 118.536 571.751L119.128 570.945C118.048 570.152 116.981 569.352 115.928 568.547L115.321 569.342C114.254 568.527 113.202 567.706 112.163 566.879L112.785 566.096C111.73 565.257 110.689 564.411 109.662 563.56L109.024 564.329C107.992 563.474 106.975 562.612 105.973 561.745L106.628 560.989C105.61 560.108 104.607 559.221 103.62 558.328L102.949 559.07C101.949 558.166 100.966 557.255 99.9981 556.339L100.686 555.613C99.7158 554.695 98.7625 553.771 97.8259 552.842L97.1215 553.551C96.1596 552.597 95.2151 551.636 94.2883 550.67L95.01 549.978C94.0889 549.017 93.1855 548.051 92.2998 547.08L91.5607 547.753C90.6469 546.751 89.7518 545.742 88.8757 544.727L89.6326 544.074C88.7598 543.063 87.906 542.046 87.0716 541.024L86.2969 541.656C85.4437 540.61 84.6106 539.559 83.7976 538.502L84.5903 537.892C83.7739 536.831 82.9782 535.763 82.2034 534.69L81.3926 535.275C80.606 534.186 79.8406 533.09 79.0968 531.989L79.9255 531.429C79.1747 530.318 78.4462 529.2 77.7403 528.077L76.8937 528.61C76.1803 527.475 75.4897 526.334 74.8221 525.188L75.6862 524.685C75.0109 523.525 74.3595 522.36 73.7322 521.189L72.8507 521.662C72.2177 520.48 71.609 519.293 71.0248 518.1L71.9229 517.66C71.3341 516.458 70.7705 515.25 70.2326 514.037L69.3184 514.442C68.7746 513.216 68.2565 511.984 67.7646 510.746L68.6939 510.377C68.2013 509.137 67.7352 507.892 67.2961 506.642L66.3526 506.974C65.9077 505.708 65.4901 504.436 65.1 503.159L66.0564 502.867C65.668 501.595 65.3072 500.319 64.9745 499.037L64.0066 499.288C63.6695 497.99 63.3607 496.686 63.0807 495.377L64.0586 495.168C63.7812 493.872 63.5324 492.57 63.3125 491.264L62.3264 491.43C62.1038 490.109 61.9105 488.782 61.7467 487.451L62.7392 487.329C62.5777 486.016 62.4454 484.699 62.3424 483.377L61.3454 483.455C61.2416 482.121 61.1673 480.782 61.1231 479.439L62.1226 479.406C62.1007 478.742 62.0863 478.077 62.0793 477.411C62.0724 476.746 62.0729 476.081 62.0808 475.416L61.0809 475.404C61.097 474.061 61.1432 472.721 61.2192 471.385L62.2175 471.442C62.2928 470.118 62.3976 468.799 62.5316 467.483L61.5367 467.381C61.6726 466.047 61.8381 464.717 62.033 463.391L63.0224 463.536C63.2149 462.226 63.4365 460.92 63.6866 459.618L62.7046 459.429C62.9572 458.115 63.2385 456.805 63.5484 455.499L64.5214 455.73C64.8272 454.442 65.1612 453.158 65.5229 451.879L64.5606 451.607C64.9239 450.322 65.3148 449.042 65.7331 447.766L66.6833 448.078C67.0963 446.819 67.5362 445.565 68.0027 444.315L67.0659 443.965C67.5318 442.718 68.024 441.475 68.542 440.237L69.4645 440.623C69.9769 439.399 70.5151 438.18 71.0786 436.966L70.1715 436.545C70.7306 435.34 71.3144 434.14 71.9225 432.946L72.8137 433.4C73.4164 432.216 74.0433 431.037 74.6942 429.864L73.8197 429.379C74.4632 428.219 75.1298 427.064 75.8192 425.915L76.6768 426.429C77.3591 425.292 78.0641 424.159 78.7914 423.032L77.9512 422.49C78.6718 421.373 79.4141 420.262 80.1778 419.156L81.0006 419.724C81.7528 418.635 82.526 417.551 83.32 416.473L82.5147 415.88C83.3054 414.806 84.1164 413.738 84.9475 412.675L85.7353 413.291C86.5481 412.251 87.3804 411.217 88.2319 410.188L87.4615 409.55C88.3162 408.517 89.19 407.49 90.0826 406.468L90.8357 407.126C91.7008 406.136 92.5838 405.152 93.4846 404.172L92.7486 403.495C93.655 402.51 94.5792 401.529 95.5209 400.555L96.2399 401.25C97.1569 400.301 98.0907 399.357 99.0411 398.419L98.3385 397.708C99.2868 396.772 100.251 395.841 101.232 394.916L101.918 395.643C102.886 394.73 103.87 393.823 104.869 392.92L104.199 392.178C105.183 391.29 106.182 390.407 107.195 389.53L107.85 390.287C108.858 389.414 109.881 388.547 110.919 387.685L110.28 386.916C111.301 386.068 112.337 385.225 113.386 384.387L114.01 385.169C115.046 384.342 116.096 383.521 117.159 382.704L116.55 381.911C117.615 381.094 118.692 380.282 119.783 379.476L120.378 380.28C121.437 379.497 122.51 378.72 123.594 377.947L123.014 377.133C124.103 376.357 125.205 375.586 126.319 374.821L126.885 375.646C127.981 374.893 129.089 374.146 130.208 373.403L129.656 372.57C130.763 371.836 131.881 371.108 133.011 370.385L133.55 371.227C134.675 370.507 135.811 369.792 136.959 369.082L136.433 368.231C137.564 367.532 138.706 366.838 139.858 366.149L140.371 367.007C141.51 366.326 142.658 365.651 143.818 364.981L143.317 364.115C144.48 363.442 145.654 362.775 146.837 362.113L147.326 362.985C148.479 362.34 149.643 361.7 150.815 361.065L150.339 360.186C151.512 359.551 152.694 358.921 153.885 358.296L154.349 359.182C155.537 358.56 156.734 357.942 157.94 357.33L157.487 356.439C158.669 355.839 159.859 355.245 161.058 354.655L161.499 355.553C162.693 354.966 163.895 354.384 165.106 353.807L164.676 352.905C165.891 352.326 167.115 351.753 168.346 351.185L168.765 352.093C169.965 351.54 171.172 350.991 172.388 350.448L171.98 349.535C173.199 348.99 174.425 348.451 175.659 347.916L176.057 348.834C177.287 348.301 178.526 347.773 179.772 347.251L179.385 346.329C180.609 345.815 181.84 345.307 183.078 344.804L183.454 345.73C184.687 345.229 185.927 344.734 187.174 344.243L186.808 343.312C188.058 342.82 189.316 342.333 190.58 341.85L190.937 342.785C192.176 342.312 193.422 341.845 194.675 341.382L194.328 340.444C195.579 339.982 196.836 339.525 198.1 339.074L198.437 340.015C199.697 339.564 200.965 339.119 202.238 338.678L201.911 337.733C203.172 337.297 204.439 336.865 205.712 336.439L206.03 337.387C207.289 336.965 208.555 336.548 209.827 336.136L209.519 335.185C210.794 334.772 212.075 334.364 213.362 333.961L213.661 334.915C214.935 334.516 216.216 334.121 217.503 333.732L217.213 332.775C218.486 332.389 219.764 332.009 221.048 331.633L221.329 332.593C222.61 332.218 223.897 331.848 225.189 331.483L224.917 330.52C226.211 330.155 227.511 329.794 228.816 329.438L229.079 330.403C230.358 330.054 231.641 329.711 232.93 329.372L232.676 328.405C233.967 328.065 235.264 327.73 236.565 327.4L236.811 328.37C238.11 328.04 239.414 327.716 240.722 327.397L240.485 326.425C241.782 326.109 243.083 325.797 244.389 325.49L244.618 326.464C245.912 326.16 247.212 325.86 248.516 325.566L248.296 324.59C249.603 324.295 250.914 324.005 252.23 323.719L252.442 324.697C253.751 324.413 255.064 324.134 256.382 323.86L256.178 322.881C257.481 322.61 258.787 322.343 260.098 322.082L260.294 323.063C261.602 322.802 262.915 322.546 264.231 322.294L264.044 321.312C265.363 321.06 266.686 320.813 268.014 320.571L268.193 321.555C269.504 321.316 270.818 321.082 272.136 320.852L271.965 319.867C273.279 319.639 274.596 319.415 275.918 319.196L276.082 320.182C277.401 319.963 278.724 319.749 280.05 319.54L279.895 318.553C281.221 318.344 282.552 318.139 283.886 317.94L284.034 318.929C285.348 318.733 286.665 318.541 287.986 318.354L287.846 317.364C289.169 317.177 290.496 316.994 291.826 316.816L291.958 317.808C293.286 317.63 294.617 317.458 295.951 317.29L295.827 316.298C297.154 316.131 298.485 315.969 299.819 315.812L299.936 316.805C301.257 316.649 302.582 316.498 303.91 316.352L303.801 315.358C305.131 315.211 306.465 315.069 307.802 314.932L307.904 315.927C309.238 315.79 310.575 315.658 311.915 315.531L311.821 314.535C313.149 314.409 314.479 314.288 315.813 314.172L315.9 315.168C317.227 315.052 318.558 314.941 319.891 314.834L319.812 313.837C321.148 313.731 322.486 313.629 323.828 313.532L323.9 314.529C325.237 314.432 326.577 314.34 327.92 314.253L327.855 313.255C329.184 313.169 330.516 313.087 331.851 313.01L331.908 314.009C333.24 313.932 334.575 313.86 335.912 313.793L335.862 312.794C337.202 312.727 338.544 312.664 339.888 312.606L339.931 313.606C341.268 313.548 342.607 313.495 343.949 313.448L343.913 312.448C345.246 312.401 346.581 312.358 347.918 312.32L347.946 313.319C349.281 313.281 350.618 313.248 351.958 313.22L351.936 312.22C353.278 312.191 354.622 312.168 355.968 312.149L355.982 313.149C356.654 313.139 357.327 313.131 358 313.124C358.672 313.117 359.345 313.111 360.017 313.106L360.01 312.106C361.356 312.097 362.7 312.093 364.042 312.093L364.042 313.093C365.382 313.094 366.719 313.099 368.054 313.109L368.062 312.109C369.4 312.119 370.735 312.134 372.069 312.154L372.054 313.154C373.396 313.173 374.736 313.198 376.074 313.227L376.096 312.228C377.441 312.257 378.784 312.292 380.125 312.331L380.096 313.331C381.434 313.37 382.77 313.414 384.103 313.463L384.14 312.463C385.476 312.512 386.809 312.566 388.14 312.625L388.096 313.624C389.44 313.683 390.782 313.747 392.121 313.815L392.172 312.817C393.515 312.886 394.856 312.96 396.194 313.038L396.135 314.037C397.47 314.115 398.803 314.199 400.133 314.287L400.199 313.289C401.535 313.378 402.867 313.471 404.197 313.569L404.124 314.566C405.466 314.665 406.806 314.769 408.143 314.878L408.224 313.882C409.564 313.991 410.9 314.104 412.233 314.223L412.144 315.219C413.475 315.338 414.803 315.461 416.127 315.589L416.224 314.594C417.561 314.723 418.895 314.857 420.225 314.996L420.121 315.991C421.459 316.131 422.793 316.275 424.124 316.425L424.236 315.431C425.57 315.581 426.9 315.736 428.227 315.895L428.107 316.888C429.432 317.047 430.753 317.211 432.07 317.38L432.197 316.388C433.535 316.56 434.87 316.736 436.201 316.917L436.066 317.908C437.397 318.09 438.724 318.276 440.047 318.467L440.19 317.477C441.516 317.668 442.838 317.865 444.157 318.066L444.006 319.054C445.329 319.256 446.647 319.463 447.962 319.674L448.121 318.687C449.454 318.901 450.782 319.12 452.106 319.345L451.939 320.331C453.261 320.554 454.578 320.783 455.892 321.016L456.067 320.032C457.383 320.266 458.695 320.505 460.003 320.748L459.82 321.731C461.143 321.978 462.462 322.229 463.776 322.486L463.968 321.504C465.289 321.762 466.607 322.025 467.919 322.293L467.72 323.273C469.029 323.54 470.335 323.812 471.636 324.089L471.844 323.111C473.156 323.39 474.464 323.675 475.767 323.964L475.55 324.94C476.865 325.232 478.175 325.529 479.48 325.831L479.706 324.857C481.014 325.159 482.317 325.467 483.616 325.78L483.382 326.752C484.677 327.064 485.968 327.38 487.253 327.702L487.496 326.732C488.808 327.06 490.115 327.394 491.417 327.732L491.165 328.7C492.465 329.038 493.759 329.381 495.047 329.729L495.308 328.764C496.6 329.112 497.886 329.466 499.167 329.825L498.897 330.788C500.191 331.15 501.48 331.518 502.763 331.891L503.042 330.93C504.337 331.306 505.626 331.688 506.909 332.074L506.621 333.031C507.901 333.417 509.176 333.807 510.444 334.203L510.741 333.248C512.023 333.648 513.299 334.052 514.568 334.462L514.261 335.414C515.544 335.828 516.82 336.247 518.09 336.671L518.407 335.723C519.68 336.148 520.947 336.578 522.207 337.014L521.88 337.959C523.142 338.395 524.398 338.837 525.647 339.283L525.983 338.342C527.258 338.797 528.525 339.258 529.786 339.724L529.439 340.662C530.696 341.127 531.946 341.597 533.189 342.072L533.546 341.138C534.794 341.615 536.035 342.097 537.269 342.585L536.902 343.515C538.159 344.011 539.408 344.513 540.65 345.02L541.028 344.094C542.273 344.603 543.511 345.116 544.74 345.635L544.351 346.557C545.578 347.074 546.797 347.597 548.008 348.125L548.408 347.209C549.651 347.751 550.886 348.298 552.113 348.851L551.702 349.763C552.925 350.314 554.139 350.871 555.345 351.433L555.767 350.526C556.978 351.09 558.181 351.66 559.374 352.234L558.94 353.135C560.159 353.722 561.369 354.314 562.569 354.912L563.014 354.016C564.219 354.616 565.413 355.221 566.599 355.831L566.141 356.72C567.327 357.33 568.504 357.946 569.671 358.567L570.14 357.684C571.338 358.322 572.525 358.964 573.702 359.612L573.22 360.488C574.392 361.134 575.555 361.786 576.708 362.442L577.203 361.573C578.369 362.238 579.525 362.908 580.67 363.584L580.162 364.445C581.325 365.131 582.476 365.822 583.616 366.519L584.137 365.665C585.282 366.365 586.415 367.069 587.537 367.78L587.002 368.625C588.137 369.343 589.26 370.067 590.371 370.797L590.92 369.961C592.05 370.702 593.167 371.45 594.273 372.203L593.71 373.029C594.81 373.779 595.899 374.534 596.974 375.295L597.552 374.478C598.659 375.261 599.754 376.05 600.835 376.845L600.243 377.651C601.323 378.444 602.39 379.244 603.443 380.049L604.05 379.254C605.117 380.07 606.17 380.891 607.209 381.717L606.586 382.5C607.642 383.34 608.683 384.185 609.709 385.036L610.347 384.267C611.379 385.122 612.396 385.984 613.398 386.851L612.744 387.607C613.762 388.488 614.764 389.375 615.751 390.268L616.422 389.526C617.422 390.431 618.406 391.341 619.373 392.257L618.686 392.983C619.656 393.901 620.609 394.825 621.545 395.754L622.25 395.045C623.212 395.999 624.156 396.96 625.083 397.926L624.361 398.618C625.282 399.579 626.186 400.545 627.072 401.517L627.811 400.843C628.724 401.846 629.62 402.854 630.496 403.869L629.739 404.523C630.612 405.533 631.465 406.55 632.3 407.573L633.075 406.94C633.928 407.986 634.761 409.037 635.574 410.094L634.781 410.704C635.597 411.765 636.393 412.833 637.168 413.906L637.979 413.321C638.765 414.41 639.531 415.506 640.275 416.607L639.446 417.167C640.197 418.278 640.925 419.396 641.631 420.519L642.478 419.987C643.191 421.121 643.882 422.262 644.549 423.408L643.685 423.911C644.36 425.071 645.012 426.236 645.639 427.407L646.521 426.935C647.154 428.116 647.762 429.303 648.347 430.496L647.448 430.936C648.037 432.138 648.601 433.346 649.139 434.559L650.053 434.154C650.597 435.38 651.115 436.612 651.607 437.85L650.677 438.219C651.17 439.459 651.636 440.704 652.075 441.954L653.019 441.622C653.464 442.889 653.881 444.16 654.271 445.437L653.315 445.729C653.703 447.001 654.064 448.278 654.397 449.559L655.365 449.308C655.702 450.606 656.011 451.91 656.291 453.219L655.313 453.428C655.59 454.724 655.839 456.026 656.059 457.332L657.045 457.166C657.268 458.487 657.461 459.814 657.625 461.145L656.632 461.267C656.794 462.58 656.926 463.897 657.029 465.219L658.026 465.141Z" stroke="white" stroke-width="2" stroke-dasharray="4 4"/>
<path d="M597.455 140.955C619.578 179.273 611.108 230.674 579.062 282.981C547.04 335.25 491.596 388.19 420.298 429.354C348.999 470.519 275.43 492.064 214.152 493.662C152.83 495.26 104.08 476.895 81.9575 438.577C59.8346 400.259 68.3048 348.858 100.35 296.551C132.373 244.281 187.816 191.342 259.115 150.177C330.413 109.013 403.982 87.4677 465.26 85.8701C526.582 84.2713 575.332 102.636 597.455 140.955Z" stroke="white" stroke-width="2"/>
</svg>
