<svg width="19" height="17" viewBox="0 0 19 17" fill="none" xmlns="http://www.w3.org/2000/svg">
<path d="M8.77545 2.61208L9.48 3.31157L10.1846 2.61208L10.5268 2.27225C10.5269 2.27223 10.5269 2.2722 10.5269 2.27218C10.527 2.27212 10.527 2.27206 10.5271 2.272C11.3474 1.45834 12.461 1 13.6236 1C14.7863 1 15.9 1.45841 16.7203 2.27218C17.1265 2.67521 17.4483 3.15336 17.6677 3.67911C17.8872 4.20484 18 4.76809 18 5.33674C18 5.90539 17.8872 6.46864 17.6677 6.99437C17.4483 7.52012 17.1265 7.99827 16.7203 8.4013L16.7189 8.40275L16.3789 8.74156L16.3776 8.74283L9.48 15.5909L2.58242 8.74283L2.58115 8.74156L2.24437 8.406C1.44042 7.58951 0.99413 6.49285 1.00006 5.35398C1.00599 4.21377 1.46474 3.12048 2.27898 2.31196C3.09346 1.5032 4.19794 1.04487 5.35292 1.03876C6.50621 1.03265 7.61404 1.47796 8.43683 2.2759L8.77545 2.61208Z" stroke="white" stroke-width="2"/>
</svg>
