<svg width="19" height="17" viewBox="0 0 19 17" fill="none" xmlns="http://www.w3.org/2000/svg">
<path d="M17.4247 1.56235C16.4164 0.561954 15.0492 0 13.6236 0C12.1981 0 10.8309 0.561954 9.82254 1.56235L9.48 1.90243L9.13746 1.56235C8.12559 0.578776 6.76371 0.0312773 5.34763 0.0387696C3.93155 0.046262 2.57562 0.60814 1.57437 1.60236C0.573114 2.59659 0.00738979 3.94286 7.18834e-05 5.34877C-0.00724602 6.75468 0.544433 8.10669 1.53529 9.11113L1.8766 9.45121L9.48 17L17.0834 9.45121L17.4247 9.11113C17.9241 8.61556 18.3203 8.02716 18.5906 7.37954C18.8609 6.73191 19 6.03776 19 5.33674C19 4.63572 18.8609 3.94157 18.5906 3.29395C18.3203 2.64632 17.9241 2.05792 17.4247 1.56235Z" fill="white"/>
</svg>
