<svg width="31" height="31" viewBox="0 0 31 31" fill="none" xmlns="http://www.w3.org/2000/svg">
<g clip-path="url(#clip0_139_12)">
<path d="M16.0212 15.7853C16.9016 15.7811 17.7611 15.5192 18.4909 15.0329C19.2207 14.5465 19.7883 13.8574 20.1217 13.0527C20.4552 12.248 20.5397 11.3637 20.3645 10.5116C20.1893 9.65948 19.7623 8.87775 19.1375 8.26517C18.5126 7.65258 17.718 7.23662 16.8538 7.06984C15.9897 6.90305 15.0949 6.99293 14.2825 7.32811C13.4701 7.66329 12.7765 8.22873 12.2893 8.95301C11.8022 9.67729 11.5433 10.5279 11.5454 11.3974C11.5468 11.9759 11.6638 12.5485 11.8896 13.0823C12.1155 13.6162 12.4457 14.1008 12.8615 14.5084C13.2772 14.916 13.7703 15.2385 14.3125 15.4577C14.8547 15.6768 15.4353 15.7881 16.0212 15.7853ZM16.0212 9.57734C16.3845 9.57734 16.7397 9.68369 17.0419 9.88295C17.3441 10.0822 17.5797 10.3654 17.719 10.6969C17.8583 11.0283 17.8949 11.3931 17.8244 11.7451C17.7539 12.0971 17.5793 12.4205 17.3227 12.6746C17.0661 12.9287 16.739 13.1019 16.3827 13.1725C16.0265 13.2431 15.657 13.2078 15.321 13.0711C14.9851 12.9345 14.6977 12.7025 14.4951 12.4046C14.2925 12.1067 14.1839 11.7562 14.183 11.3974C14.1779 11.1574 14.2219 10.9189 14.3125 10.6961C14.403 10.4734 14.5381 10.2709 14.7098 10.101C14.8814 9.93103 15.086 9.79705 15.3114 9.70707C15.5367 9.61709 15.7781 9.57297 16.0212 9.57734Z" fill="#AF1717"/>
<path d="M17.805 19.3893C18.7199 19.1832 19.5934 18.8276 20.3896 18.3372C20.6753 18.149 20.8749 17.8576 20.9455 17.5257C21.0162 17.1938 20.9522 16.8477 20.7674 16.5618C20.5825 16.276 20.2915 16.0731 19.9569 15.9967C19.6223 15.9203 19.2707 15.9766 18.9775 16.1534C18.0787 16.7077 17.0403 17.0015 15.9807 17.0015C14.921 17.0015 13.8826 16.7077 12.9838 16.1534C12.6902 15.9735 12.337 15.9141 11.9996 15.9878C11.6622 16.0616 11.3674 16.2626 11.1781 16.548C11.0082 16.8422 10.96 17.1899 11.0434 17.5184C11.1268 17.8469 11.3355 18.1309 11.6259 18.311C12.4217 18.8013 13.2949 19.1569 14.2093 19.3631L11.7318 21.8097C11.489 22.0509 11.3527 22.3772 11.3527 22.7174C11.3527 23.0575 11.489 23.3838 11.7318 23.625C11.8537 23.7461 11.9993 23.8412 12.1597 23.9046C12.3202 23.968 12.4921 23.9982 12.6648 23.9936C13.0112 23.9906 13.3438 23.8591 13.5965 23.625L16.0475 21.2046L18.4984 23.625C18.7422 23.8656 19.0727 24.0007 19.4174 24.0006C19.762 24.0005 20.0924 23.8652 20.336 23.6244C20.5796 23.3837 20.7164 23.0573 20.7163 22.717C20.7162 22.3766 20.5792 22.0503 20.3354 21.8097L17.805 19.3893Z" fill="#AF1717"/>
</g>
<defs>
<clipPath id="clip0_139_12">
<rect width="10" height="17" fill="white" transform="translate(11 6.99988)"/>
</clipPath>
</defs>
</svg>
