<svg width="31" height="32" viewBox="0 0 31 32" fill="none" xmlns="http://www.w3.org/2000/svg">
<path d="M23.2499 8.89219L20.3049 23.7102C20.2531 23.9141 20.132 24.0937 19.9623 24.2181C19.7926 24.3425 19.585 24.4041 19.3749 24.3922C19.1324 24.4046 18.8935 24.3305 18.7007 24.1829L12.3999 18.9672L9.2999 17.4172L5.35515 16.3632C5.35515 16.3632 4.6499 16.1617 4.6499 15.5882C4.6499 15.0147 5.37065 14.8752 5.37065 14.8752L21.8937 8.31094C22.1753 8.20644 22.47 8.14125 22.7694 8.11719C22.9942 8.11719 23.2499 8.21019 23.2499 8.50469C23.261 8.63362 23.261 8.76326 23.2499 8.89219Z" fill="#AF1717"/>
<path d="M14.725 20.9043L12.0667 23.5238C11.9894 23.579 11.8981 23.6113 11.8032 23.6168C11.7445 23.6289 11.6838 23.6289 11.625 23.6168L12.4 18.9668L14.725 20.9043Z" fill="#B0BEC5"/>
<path d="M20.0723 11.3708C20.0094 11.2902 19.9178 11.2372 19.8167 11.2227C19.7155 11.2083 19.6127 11.2336 19.5298 11.2933L9.2998 17.4158C9.2998 17.4158 10.9351 21.9805 11.1831 22.771C11.4311 23.5615 11.6248 23.6158 11.6248 23.6158L12.3998 18.9658L20.0181 11.9133C20.0579 11.8817 20.091 11.8424 20.1154 11.7978C20.1397 11.7531 20.1549 11.7041 20.16 11.6535C20.165 11.6029 20.1599 11.5518 20.1448 11.5032C20.1298 11.4547 20.1051 11.4096 20.0723 11.3708Z" fill="#CFD8DC"/>
</svg>
