<svg width="31" height="31" viewBox="0 0 31 31" fill="none" xmlns="http://www.w3.org/2000/svg">
<path d="M16.1648 19.9909C11.0431 19.9909 8.12172 16.6193 8 10.9999H10.5655C10.6498 15.1178 12.5412 16.844 14.0393 17.2217V11.0089H16.4551V14.5603C17.9345 14.4075 19.4888 12.7891 20.0131 11.0089H22.4288C22.2347 11.9346 21.8434 12.8118 21.2795 13.5854C20.7155 14.3591 19.9911 15.0124 19.1517 15.5044C20.0875 15.9501 20.9143 16.5812 21.5776 17.356C22.241 18.1309 22.7257 19.032 23 19.9999H20.3315C20.0866 19.1576 19.5881 18.4036 18.8984 17.8325C18.2087 17.2614 17.3587 16.8988 16.4551 16.7901V19.9999L16.1648 19.9909Z" fill="#AF1717"/>
</svg>
